<svg  id="disable_motor" xmlns="http://www.w3.org/2000/svg" xmlns:xlink="http://www.w3.org/1999/xlink" viewBox="0 0 118.57 121.42">
    <defs>
        <style>.cls-26{isolation:isolate;}.cls-27{fill:url(#linear-gradient);}.cls-28{mix-blend-mode:multiply;}</style>
        <linearGradient id="linear-gradient" x1="126.82" y1="265.03" x2="126.82" y2="146.46" gradientUnits="userSpaceOnUse">
            <stop offset="0" stop-color="#c70606" />
            <stop offset="0.3" stop-color="#d90606" />
            <stop offset="0.7" stop-color="#ea0707" />
            <stop offset="1" stop-color="#f00707" />
        </linearGradient>
    </defs>
    <g class="cls-26">
        <g>
            <path d="M74.79,227.35l7.59,1.92a27.4,27.4,0,0,0,.9,6.45l-6.81,3.7a2.86,2.86,0,0,0-1.14,4l5.56,9.13a3.22,3.22,0,0,0,4.25,1.08L92,249.94a31.44,31.44,0,0,0,5.44,4l-2,7.16a2.92,2.92,0,0,0,2.19,3.6l10.76,2.74a3.14,3.14,0,0,0,3.82-2.08l2-7.16a32.89,32.89,0,0,0,6.82-.85l3.93,6.43a3.2,3.2,0,0,0,4.24,1.09l9.66-5.26a2.87,2.87,0,0,0,1.15-4l-3.92-6.43a30.08,30.08,0,0,0,4.19-5.15l7.57,1.93a3.13,3.13,0,0,0,3.82-2.08l2.9-10.17a2.92,2.92,0,0,0-2.2-3.6l-7.57-1.92a27.87,27.87,0,0,0-.91-6.45l6.81-3.71a2.85,2.85,0,0,0,1.14-4l-5.56-9.13a3.23,3.23,0,0,0-4.26-1.08l-6.8,3.71a31,31,0,0,0-5.44-4l2-7.16a2.74,2.74,0,0,0-.61-2.55l5.78,4.23a2.29,2.29,0,0,0,3.11-.38l3.43-4.17a22.75,22.75,0,0,0,4.74,1.22l.7,5.25a2.19,2.19,0,0,0,2.47,1.82l7.89-.94a2.12,2.12,0,0,0,1.92-2.35l-.7-5.24a23,23,0,0,0,4.27-2.3l4.42,3.25a2.31,2.31,0,0,0,3.11-.37l4.88-6a2,2,0,0,0-.4-2.93l-4.42-3.24a20.11,20.11,0,0,0,1.29-4.47l5.55-.66a2.12,2.12,0,0,0,1.93-2.35l-1-7.44a2.2,2.2,0,0,0-2.48-1.82l-5.56.66a20.94,20.94,0,0,0-2.43-4l3.43-4.17a2,2,0,0,0-.39-2.94l-6.28-4.6a2.3,2.3,0,0,0-3.11.37l-3.43,4.18a22.66,22.66,0,0,0-4.73-1.22l-.7-5.25a2.2,2.2,0,0,0-2.48-1.82l-7.88.94a2.12,2.12,0,0,0-1.93,2.34l.71,5.25a21.83,21.83,0,0,0-4.27,2.29l-4.42-3.24a2.32,2.32,0,0,0-3.12.36L126.2,160a2,2,0,0,0,.39,2.95l4.42,3.24a19.57,19.57,0,0,0-1.28,4.47l-5.56.66a2.11,2.11,0,0,0-1.92,2.35l1,7.44a2.18,2.18,0,0,0,2.47,1.82l5.56-.66a20.33,20.33,0,0,0,2.42,4l-3.43,4.18a2,2,0,0,0,.12,2.65,3.19,3.19,0,0,0-.81-.39L118.8,190a3.12,3.12,0,0,0-3.8,2.08l-2,7.15a33,33,0,0,0-6.82.86l-3.92-6.44A3.22,3.22,0,0,0,98,192.57l-9.66,5.26a2.86,2.86,0,0,0-1.15,4l3.93,6.44a29.61,29.61,0,0,0-4.2,5.14l-7.58-1.92a3.15,3.15,0,0,0-3.82,2.08l-2.88,10.16A2.91,2.91,0,0,0,74.79,227.35Zm63.62-51.84c-.91-6.91,4.29-13.24,11.6-14.12s14,4,15,11-4.27,13.24-11.6,14.12S139.34,182.43,138.41,175.51Zm-41.1,62c-5.17-8.47-2.07-19.33,6.89-24.2s20.45-2,25.61,6.5,2.08,19.34-6.89,24.21S102.47,246,97.31,237.55Z" transform="translate(-67.54 -146.09)" />
            <path class="cls-27" d="M126.82,146.46a59.29,59.29,0,1,0,59.29,59.29A59.35,59.35,0,0,0,126.82,146.46Zm38.4,88.77a.76.76,0,0,1-1.17.07L97.27,168.52a.76.76,0,0,1,.07-1.17,48.41,48.41,0,0,1,67.88,67.88Zm-76.79-59a.75.75,0,0,1,1.16-.08L156.37,243a.75.75,0,0,1-.07,1.16,48.4,48.4,0,0,1-67.87-67.87Z" transform="translate(-67.54 -146.09)" />
            <path class="cls-28" d="M126.82,147.64a58.11,58.11,0,1,1-58.11,58.11,58.18,58.18,0,0,1,58.11-58.11Zm37.79,89.07a1.93,1.93,0,0,0,1.54-.76,49.14,49.14,0,0,0,10.28-30.2,49.67,49.67,0,0,0-49.61-49.61,49.14,49.14,0,0,0-30.2,10.28,1.94,1.94,0,0,0-.18,2.93l66.78,66.78a1.94,1.94,0,0,0,1.39.58Zm-37.79,18.64A49.07,49.07,0,0,0,157,245.07a1.93,1.93,0,0,0,.18-2.92L90.42,175.36a2,2,0,0,0-1.39-.58,1.91,1.91,0,0,0-1.53.77,49.07,49.07,0,0,0-10.28,30.2,49.66,49.66,0,0,0,49.6,49.6Zm0-108.89a59.29,59.29,0,1,0,59.29,59.29,59.35,59.35,0,0,0-59.29-59.29Zm37.79,89.08a.79.79,0,0,1-.56-.24L97.27,168.52a.76.76,0,0,1,.07-1.17,48.41,48.41,0,0,1,67.88,67.88.77.77,0,0,1-.61.31Zm-37.79,18.64a48.4,48.4,0,0,1-38.39-77.91A.74.74,0,0,1,89,176a.78.78,0,0,1,.56.23L156.37,243a.75.75,0,0,1-.07,1.16,48.16,48.16,0,0,1-29.48,10Z" transform="translate(-67.54 -146.09)" />
        </g>
    </g>
</svg>