<svg id="enable_motor" xmlns="http://www.w3.org/2000/svg" viewBox="0 0 126.16 112.13">
    <defs>
        <style>.cls-29{fill:#2fa124;stroke:#000;stroke-miterlimit:10;}</style>
    </defs>
    <path d="M182,85.32l-2.67-9.38A2.88,2.88,0,0,0,175.77,74l-7,1.77A27.25,27.25,0,0,0,164.89,71l3.63-5.94a2.64,2.64,0,0,0-1.06-3.71l-8.93-4.85a3,3,0,0,0-3.92,1L151,63.48a29.93,29.93,0,0,0-6.3-.79l-1.88-6.61a2.88,2.88,0,0,0-3.51-1.92l-10,2.52a3.06,3.06,0,0,0-.75.36,1.84,1.84,0,0,0,.11-2.45l-3.17-3.85A19,19,0,0,0,127.78,47l5.13.61a2,2,0,0,0,2.29-1.68l.92-6.87a2,2,0,0,0-1.77-2.16l-5.14-.62A18.28,18.28,0,0,0,128,32.16l4.09-3a1.88,1.88,0,0,0,.36-2.72L128,21a2.14,2.14,0,0,0-2.88-.34l-4.08,3a19.61,19.61,0,0,0-3.94-2.12l.65-4.85a2,2,0,0,0-1.78-2.16l-7.28-.87a2,2,0,0,0-2.29,1.68l-.65,4.85a21.14,21.14,0,0,0-4.36,1.12l-3.18-3.86a2.11,2.11,0,0,0-2.87-.33l-5.79,4.25a1.85,1.85,0,0,0-.36,2.71l3.16,3.85a19.53,19.53,0,0,0-2.24,3.73L85,31a2,2,0,0,0-2.29,1.68l-.92,6.87a2,2,0,0,0,1.78,2.17l5.13.61a18.28,18.28,0,0,0,1.19,4.13l-4.08,3a1.86,1.86,0,0,0-.37,2.71l4.5,5.49a2.15,2.15,0,0,0,2.88.34l4.08-3a21.29,21.29,0,0,0,3.94,2.12L100.14,62a2,2,0,0,0,1.78,2.17l7.28.86a2,2,0,0,0,2.29-1.67l.65-4.86a21.23,21.23,0,0,0,4.37-1.12l3.17,3.85a2.11,2.11,0,0,0,2.87.35l5.33-3.91a2.58,2.58,0,0,0-.56,2.36l1.88,6.61a28.53,28.53,0,0,0-5,3.67l-6.28-3.42a3,3,0,0,0-3.93,1l-5.14,8.43a2.64,2.64,0,0,0,1.06,3.7l6.29,3.42a25.88,25.88,0,0,0-.84,6l-7,1.77a2.7,2.7,0,0,0-2,3.33l2.68,9.39a2.88,2.88,0,0,0,3.52,1.92l7-1.78a27.65,27.65,0,0,0,3.87,4.75l-3.61,5.94a2.65,2.65,0,0,0,1,3.72l8.92,4.85a3,3,0,0,0,3.92-1l3.63-5.94a30.6,30.6,0,0,0,6.3.79l1.88,6.61a2.89,2.89,0,0,0,3.53,1.91l9.93-2.52a2.71,2.71,0,0,0,2-3.33l-1.88-6.61a28.53,28.53,0,0,0,5-3.67l6.29,3.43a3,3,0,0,0,3.92-1l5.14-8.43a2.64,2.64,0,0,0-1.06-3.71l-6.29-3.42a25.8,25.8,0,0,0,.84-5.95l7-1.78A2.7,2.7,0,0,0,182,85.32ZM107.39,50.9c-6.77-.81-11.56-6.65-10.72-13s7.06-10.92,13.81-10.12,11.55,6.66,10.71,13S114.15,51.71,107.39,50.9Zm28.1,53.19c-8.28-4.5-11.13-14.54-6.36-22.36s15.38-10.51,23.65-6,11.14,14.53,6.37,22.35S143.76,108.59,135.49,104.09Z" transform="translate(-63.74 -13.61)" />
    <polygon class="cls-29" points="42.61 101.18 0.71 59.28 15.78 44.2 42.61 71.03 110.38 3.26 125.45 18.34 42.61 101.18" />
</svg>