<svg id="Piston" xmlns="http://www.w3.org/2000/svg" viewBox="0 0 219.88 80.85">
    <defs>
        <style>.cls-1{fill:#231f20;}.cls-2,.cls-3{fill:none;stroke:#231f20;}.cls-2{stroke-linejoin:round;}.cls-3{stroke-miterlimit:10;}</style>
    </defs>
    <path class="cls-1" d="M140.73,201.25v54.17H15.17V201.25H140.73m1-1H14.17v56.17H141.73V200.25Z" transform="translate(-14.17 -187.84)" />
    <polyline class="cls-2" points="14.17 13.16 14.17 67.92 16.19 13.16 18.22 67.92 20.21 13.76 22.27 67.92 24.29 13.16 26.25 67.41 28.34 13.89" />
    <line class="cls-3" x1="113.38" y1="68.58" x2="113.38" y2="12.41" />
    <rect class="cls-2" x="2.79" y="68.18" width="8.6" height="4.3" />
    <rect class="cls-2" x="116.17" y="68.18" width="8.6" height="4.3" />
    <rect class="cls-2" x="2.79" y="8.52" width="8.6" height="4.3" />
    <rect class="cls-2" x="116.17" y="8.52" width="8.6" height="4.3" />
    <path class="cls-2" d="M208.78,190.81a32.24,32.24,0,0,1,24.77,0,22.35,22.35,0,0,1-24.77,0Z" transform="translate(-14.17 -187.84)" />
    <line class="cls-2" x1="194.62" y1="38.04" x2="194.62" y2="2.97" />
    <line class="cls-2" x1="219.38" y1="38.04" x2="219.38" y2="2.97" />
    <path class="cls-2" d="M233.55,265.72a32.24,32.24,0,0,1-24.77,0,22.35,22.35,0,0,1,24.77,0Z" transform="translate(-14.17 -187.84)" />
    <line class="cls-2" x1="219.38" y1="38.04" x2="219.38" y2="77.88" />
    <line class="cls-2" x1="194.62" y1="42.82" x2="194.62" y2="77.88" />
    <path class="cls-1" d="M211.85,203.39a1.5,1.5,0,0,0,0-3,1.5,1.5,0,0,0,0,3Z" transform="translate(-14.17 -187.84)" />
    <path class="cls-1" d="M224.1,203.39a1.5,1.5,0,0,0,0-3,1.5,1.5,0,0,0,0,3Z" transform="translate(-14.17 -187.84)" />
    <path class="cls-1" d="M217.72,199.82a1.5,1.5,0,0,0,0-3,1.5,1.5,0,0,0,0,3Z" transform="translate(-14.17 -187.84)" />
    <path class="cls-1" d="M221.55,218.45a1.5,1.5,0,0,0,0-3,1.5,1.5,0,0,0,0,3Z" transform="translate(-14.17 -187.84)" />
    <path class="cls-1" d="M215.17,213.09a1.5,1.5,0,0,0,0-3,1.5,1.5,0,0,0,0,3Z" transform="translate(-14.17 -187.84)" />
    <path class="cls-1" d="M212.61,223.31a1.5,1.5,0,0,0,0-3,1.5,1.5,0,0,0,0,3Z" transform="translate(-14.17 -187.84)" />
    <path class="cls-1" d="M226.91,208.5a1.5,1.5,0,0,0,0-3,1.5,1.5,0,0,0,0,3Z" transform="translate(-14.17 -187.84)" />
    <path class="cls-1" d="M230,219.73a1.5,1.5,0,0,0,0-3,1.5,1.5,0,0,0,0,3Z" transform="translate(-14.17 -187.84)" />
    <path class="cls-1" d="M211.85,241.9a1.5,1.5,0,0,0,0-3,1.5,1.5,0,0,0,0,3Z" transform="translate(-14.17 -187.84)" />
    <path class="cls-1" d="M224.1,241.9a1.5,1.5,0,0,0,0-3,1.5,1.5,0,0,0,0,3Z" transform="translate(-14.17 -187.84)" />
    <path class="cls-1" d="M217.72,238.33a1.5,1.5,0,0,0,0-3,1.5,1.5,0,0,0,0,3Z" transform="translate(-14.17 -187.84)" />
    <path class="cls-1" d="M221.55,257a1.5,1.5,0,0,0,0-3,1.5,1.5,0,0,0,0,3Z" transform="translate(-14.17 -187.84)" />
    <path class="cls-1" d="M215.17,251.6a1.5,1.5,0,0,0,0-3,1.5,1.5,0,0,0,0,3Z" transform="translate(-14.17 -187.84)" />
    <path class="cls-1" d="M212.61,261.82a1.5,1.5,0,0,0,0-3,1.5,1.5,0,0,0,0,3Z" transform="translate(-14.17 -187.84)" />
    <path class="cls-1" d="M226.91,247a1.5,1.5,0,0,0,0-3,1.5,1.5,0,0,0,0,3Z" transform="translate(-14.17 -187.84)" />
    <path class="cls-1" d="M230,258.24a1.5,1.5,0,0,0,0-3,1.5,1.5,0,0,0,0,3Z" transform="translate(-14.17 -187.84)" />
    <path class="cls-1" d="M211.85,209.92a1.5,1.5,0,0,0,0-3,1.5,1.5,0,0,0,0,3Z" transform="translate(-14.17 -187.84)" />
    <path class="cls-1" d="M224.1,209.92a1.5,1.5,0,0,0,0-3,1.5,1.5,0,0,0,0,3Z" transform="translate(-14.17 -187.84)" />
    <path class="cls-1" d="M217.72,206.35a1.5,1.5,0,0,0,0-3,1.5,1.5,0,0,0,0,3Z" transform="translate(-14.17 -187.84)" />
    <path class="cls-1" d="M221.55,225a1.5,1.5,0,0,0,0-3,1.5,1.5,0,0,0,0,3Z" transform="translate(-14.17 -187.84)" />
    <path class="cls-1" d="M215.17,219.62a1.5,1.5,0,0,0,0-3,1.5,1.5,0,0,0,0,3Z" transform="translate(-14.17 -187.84)" />
    <path class="cls-1" d="M212.61,229.84a1.5,1.5,0,0,0,0-3,1.5,1.5,0,0,0,0,3Z" transform="translate(-14.17 -187.84)" />
    <path class="cls-1" d="M226.91,215a1.5,1.5,0,0,0,0-3,1.5,1.5,0,0,0,0,3Z" transform="translate(-14.17 -187.84)" />
    <path class="cls-1" d="M230,226.26a1.5,1.5,0,0,0,0-3,1.5,1.5,0,0,0,0,3Z" transform="translate(-14.17 -187.84)" />
    <path class="cls-1" d="M211.85,235.23a1.5,1.5,0,0,0,0-3,1.5,1.5,0,0,0,0,3Z" transform="translate(-14.17 -187.84)" />
    <path class="cls-1" d="M226.14,235.91a1.5,1.5,0,0,0,0-3,1.5,1.5,0,0,0,0,3Z" transform="translate(-14.17 -187.84)" />
    <path class="cls-1" d="M217.72,231.66a1.5,1.5,0,0,0,0-3,1.5,1.5,0,0,0,0,3Z" transform="translate(-14.17 -187.84)" />
    <path class="cls-1" d="M224.36,229.84a1.5,1.5,0,0,0,0-3,1.5,1.5,0,0,0,0,3Z" transform="translate(-14.17 -187.84)" />
    <path class="cls-1" d="M229.46,231.66a1.5,1.5,0,0,0,0-3,1.5,1.5,0,0,0,0,3Z" transform="translate(-14.17 -187.84)" />
    <path class="cls-1" d="M221.55,250.29a1.5,1.5,0,0,0,0-3,1.5,1.5,0,0,0,0,3Z" transform="translate(-14.17 -187.84)" />
    <path class="cls-1" d="M215.17,244.93a1.5,1.5,0,0,0,0-3,1.5,1.5,0,0,0,0,3Z" transform="translate(-14.17 -187.84)" />
    <path class="cls-1" d="M212.61,255.15a1.5,1.5,0,0,0,0-3,1.5,1.5,0,0,0,0,3Z" transform="translate(-14.17 -187.84)" />
    <path class="cls-1" d="M229.46,240.34a1.5,1.5,0,0,0,0-3,1.5,1.5,0,0,0,0,3Z" transform="translate(-14.17 -187.84)" />
    <path class="cls-1" d="M230,251.57a1.5,1.5,0,0,0,0-3,1.5,1.5,0,0,0,0,3Z" transform="translate(-14.17 -187.84)" />
    <path class="cls-1" d="M229.46,199.56a1.5,1.5,0,0,0,0-3,1.5,1.5,0,0,0,0,3Z" transform="translate(-14.17 -187.84)" />
    <rect class="cls-2" x="28.39" y="34.01" width="4.13" height="12.94" />
    <path class="cls-2" d="M127.43,226.08H46.69v4.55h80.82C127.43,229.15,127.36,227.6,127.43,226.08Z" transform="translate(-14.17 -187.84)" />
    <line class="cls-2" x1="34.94" y1="38.24" x2="38.25" y2="42.8" />
    <line class="cls-2" x1="41.54" y1="38.24" x2="44.85" y2="42.8" />
    <line class="cls-2" x1="47.61" y1="38.24" x2="50.93" y2="42.8" />
    <line class="cls-2" x1="54.22" y1="38.24" x2="57.53" y2="42.8" />
    <line class="cls-2" x1="60.24" y1="38.24" x2="63.55" y2="42.8" />
    <line class="cls-2" x1="66.84" y1="38.24" x2="70.15" y2="42.8" />
    <line class="cls-2" x1="72.91" y1="38.24" x2="76.23" y2="42.8" />
    <line class="cls-2" x1="79.52" y1="38.24" x2="82.83" y2="42.8" />
    <line class="cls-2" x1="85.47" y1="38.24" x2="88.78" y2="42.8" />
    <line class="cls-2" x1="92.07" y1="38.24" x2="95.38" y2="42.8" />
    <line class="cls-2" x1="98.14" y1="38.24" x2="101.46" y2="42.8" />
    <line class="cls-2" x1="104.74" y1="38.24" x2="108.06" y2="42.8" />
    <path class="cls-2" d="M124.93,226.08l2.34,3.21" transform="translate(-14.17 -187.84)" />
    <line class="cls-2" x1="28.34" y1="12.8" x2="28.34" y2="68.16" />
</svg>