<svg id="Layer_9" data-name="Layer 9" xmlns="http://www.w3.org/2000/svg" viewBox="0 0 113.36 121.59">
    <defs>
        <style>.cls-25{stroke:#000;stroke-miterlimit:10;}</style>
    </defs>
    <polygon class="cls-25" points="31.06 67.44 0.71 97.79 20.67 117.76 50.04 88.39 50.94 75.5 80.23 46.67 86 52.43 94.09 44.34 106.09 56.34 107.52 34.13 85.77 12.38 78.98 19.2 77.8 4.05 74.45 0.71 53.96 21.2 57.34 24.58 73.5 24.58 66.33 31.74 72.01 37.42 55.77 53.65 34.04 31.93 34.04 23.15 17.06 6.17 1.47 21.76 17.76 38.06 25.87 38.06 48.91 61.1 42.94 67.08 31.06 67.44" />
    <polygon class="cls-25" points="61.56 82.48 75.47 68.57 81.38 68.57 112.86 100.06 112.86 106.24 98.02 121.09 91.53 121.09 61.12 90.68 61.56 82.48" />
</svg>