<svg id="Layer_9" data-name="Layer 9" xmlns="http://www.w3.org/2000/svg" viewBox="0 0 121.04 132.89">
    <defs>
        <style>.cls-24{stroke:#000;stroke-miterlimit:10;}</style>
    </defs>
    <path class="cls-24" d="M52.15,166.92l39.23,38.15a21.81,21.81,0,0,0,15.19,6.16h40.28a23.47,23.47,0,0,0,18.44-8.94h0a23.48,23.48,0,0,0,5.05-14.55V110.79a7,7,0,0,0-4.21-6.45h0a10.2,10.2,0,0,0-8.09,0l-.15.07a7,7,0,0,0-4.28,6.47v28.78h-5.34V92.26a7.22,7.22,0,0,0-4.59-6.73l-.71-.28a10.17,10.17,0,0,0-7.83.17h0A7.23,7.23,0,0,0,130.83,92v47.59h-5.34V87.2a7.67,7.67,0,0,0-3.93-6.69h0a9.28,9.28,0,0,0-9.17.08h0a7.27,7.27,0,0,0-3.63,6.3v52.73h-5.69V101.06a6.1,6.1,0,0,0-2.46-4.88h0a9.66,9.66,0,0,0-11.46,0h0a6.08,6.08,0,0,0-2.46,4.88v67.07L62.87,154.52A6.1,6.1,0,0,0,56,155l-2.48,2-1,.75A6.12,6.12,0,0,0,52.15,166.92Z" transform="translate(-49.81 -78.84)" />
</svg>