<svg id="Piston" xmlns="http://www.w3.org/2000/svg" viewBox="0 0 219.88 80.85">
    <defs>
        <style>.cls-4{fill:#231f20;}.cls-5,.cls-6{fill:none;stroke:#231f20;}.cls-5{stroke-linejoin:round;}.cls-6{stroke-miterlimit:10;}</style>
    </defs>
    <path class="cls-4" d="M140.73,111.89v54.17H15.17V111.89H140.73m1-1H14.17v56.17H141.73V110.89Z" transform="translate(-14.17 -98.48)" />
    <polyline class="cls-5" points="14.17 13.16 14.17 67.92 21.25 13.16 28.35 67.92 35.33 13.76 42.52 67.92 49.61 13.16 56.46 67.41 63.78 13.89" />
    <line class="cls-6" x1="113.38" y1="68.58" x2="113.38" y2="12.41" />
    <rect class="cls-5" x="2.79" y="68.18" width="8.6" height="4.3" />
    <rect class="cls-5" x="116.17" y="68.18" width="8.6" height="4.3" />
    <rect class="cls-5" x="2.79" y="8.52" width="8.6" height="4.3" />
    <rect class="cls-5" x="116.17" y="8.52" width="8.6" height="4.3" />
    <rect class="cls-5" x="63.78" y="34.03" width="4.13" height="12.94" />
    <path class="cls-5" d="M208.78,101.45a32.24,32.24,0,0,1,24.77,0,22.3,22.3,0,0,1-24.77,0Z" transform="translate(-14.17 -98.48)" />
    <line class="cls-5" x1="194.62" y1="38.04" x2="194.62" y2="2.97" />
    <line class="cls-5" x1="219.38" y1="42.82" x2="219.38" y2="2.97" />
    <path class="cls-5" d="M233.55,176.36a32.24,32.24,0,0,1-24.77,0,22.35,22.35,0,0,1,24.77,0Z" transform="translate(-14.17 -98.48)" />
    <line class="cls-5" x1="219.38" y1="42.82" x2="219.38" y2="77.88" />
    <line class="cls-5" x1="194.62" y1="42.82" x2="194.62" y2="77.88" />
    <path class="cls-4" d="M211.85,114a1.5,1.5,0,0,0,0-3,1.5,1.5,0,0,0,0,3Z" transform="translate(-14.17 -98.48)" />
    <path class="cls-4" d="M224.1,114a1.5,1.5,0,0,0,0-3,1.5,1.5,0,0,0,0,3Z" transform="translate(-14.17 -98.48)" />
    <path class="cls-4" d="M217.72,110.46a1.5,1.5,0,0,0,0-3,1.5,1.5,0,0,0,0,3Z" transform="translate(-14.17 -98.48)" />
    <path class="cls-4" d="M221.55,129.1a1.5,1.5,0,0,0,0-3,1.5,1.5,0,0,0,0,3Z" transform="translate(-14.17 -98.48)" />
    <path class="cls-4" d="M215.17,123.73a1.5,1.5,0,0,0,0-3,1.5,1.5,0,0,0,0,3Z" transform="translate(-14.17 -98.48)" />
    <path class="cls-4" d="M212.61,134a1.5,1.5,0,0,0,0-3,1.5,1.5,0,0,0,0,3Z" transform="translate(-14.17 -98.48)" />
    <path class="cls-4" d="M226.91,119.14a1.5,1.5,0,0,0,0-3,1.5,1.5,0,0,0,0,3Z" transform="translate(-14.17 -98.48)" />
    <path class="cls-4" d="M230,130.37a1.5,1.5,0,0,0,0-3,1.5,1.5,0,0,0,0,3Z" transform="translate(-14.17 -98.48)" />
    <path class="cls-4" d="M229.46,110.2a1.5,1.5,0,0,0,0-3,1.5,1.5,0,0,0,0,3Z" transform="translate(-14.17 -98.48)" />
    <path class="cls-4" d="M228.06,151.05a1.5,1.5,0,0,0,0-3,1.5,1.5,0,0,0,0,3Z" transform="translate(-14.17 -98.48)" />
    <path class="cls-4" d="M224.1,142.9a1.5,1.5,0,0,0,0-3,1.5,1.5,0,0,0,0,3Z" transform="translate(-14.17 -98.48)" />
    <path class="cls-4" d="M217.72,139.33a1.5,1.5,0,0,0,0-3,1.5,1.5,0,0,0,0,3Z" transform="translate(-14.17 -98.48)" />
    <path class="cls-4" d="M221.55,158a1.5,1.5,0,0,0,0-3,1.5,1.5,0,0,0,0,3Z" transform="translate(-14.17 -98.48)" />
    <path class="cls-4" d="M215.17,152.61a1.5,1.5,0,0,0,0-3,1.5,1.5,0,0,0,0,3Z" transform="translate(-14.17 -98.48)" />
    <path class="cls-4" d="M212.61,162.82a1.5,1.5,0,0,0,0-3,1.5,1.5,0,0,0,0,3Z" transform="translate(-14.17 -98.48)" />
    <path class="cls-4" d="M230,159.24a1.5,1.5,0,0,0,0-3,1.5,1.5,0,0,0,0,3Z" transform="translate(-14.17 -98.48)" />
    <path class="cls-4" d="M229.46,139.07a1.5,1.5,0,0,0,0-3,1.5,1.5,0,0,0,0,3Z" transform="translate(-14.17 -98.48)" />
    <path class="cls-5" d="M127.4,136.7H82v4.56h45.42C127.51,139.74,127.44,138.22,127.4,136.7Z" transform="translate(-14.17 -98.48)" />
    <path class="cls-5" d="M142,136.7c0,.21,0,.43,0,.63v3.93h28.18V136.7Z" transform="translate(-14.17 -98.48)" />
    <line class="cls-5" x1="70.27" y1="38.22" x2="73.59" y2="42.78" />
    <line class="cls-5" x1="76.88" y1="38.22" x2="80.19" y2="42.78" />
    <line class="cls-5" x1="82.95" y1="38.22" x2="86.26" y2="42.78" />
    <line class="cls-5" x1="89.55" y1="38.22" x2="92.86" y2="42.78" />
    <line class="cls-5" x1="95.57" y1="38.22" x2="98.89" y2="42.78" />
    <line class="cls-5" x1="102.17" y1="38.22" x2="105.49" y2="42.78" />
    <line class="cls-5" x1="108.25" y1="38.22" x2="111.56" y2="42.78" />
    <path class="cls-5" d="M142.2,137.57l2.68,3.69" transform="translate(-14.17 -98.48)" />
    <line class="cls-5" x1="133.48" y1="38.22" x2="136.79" y2="42.78" />
    <line class="cls-5" x1="140.08" y1="38.22" x2="143.39" y2="42.78" />
    <line class="cls-5" x1="146.1" y1="38.22" x2="149.41" y2="42.78" />
    <line class="cls-5" x1="152.7" y1="38.22" x2="156.02" y2="42.78" />
    <line class="cls-5" x1="63.78" y1="12.82" x2="63.78" y2="68.18" />
</svg>