<svg id="Usuario" xmlns="http://www.w3.org/2000/svg" viewBox="0 0 141.82 142.36">
    <defs>
        <style>.cls-12,.cls-13{fill:none;stroke-width:12px;}.cls-12,.cls-13,.cls-14,.cls-15,.cls-16,.cls-17{stroke:#000;}.cls-12,.cls-13,.cls-16{stroke-linejoin:round;}.cls-13,.cls-16{stroke-linecap:round;}.cls-14,.cls-16,.cls-17{fill:#fff;}.cls-14,.cls-15,.cls-17{stroke-miterlimit:10;}.cls-14{stroke-width:3px;}.cls-16{stroke-width:6px;}.cls-17{stroke-width:7px;}</style>
    </defs>
    <circle class="cls-12" cx="70.38" cy="35.62" r="29.62" />
    <path class="cls-13" d="M185.78,196.42H56.08v-22c8.06-6.65,28.41-21.57,57.73-23.69,37.86-2.73,64.71,17.75,72,23.69v20.6" transform="translate(-50.08 -60.06)" />
    <path class="cls-14" d="M143.61,197.29l-.63-.65a10.63,10.63,0,0,1-3-7.36V171.79a10.59,10.59,0,0,1,2.68-7.06l.87-1h0a10.64,10.64,0,0,1,7.93-3.56h27.75a10.61,10.61,0,0,1,6.66,2.35l.53.42a10.64,10.64,0,0,1,4,8.27v18.49a10.62,10.62,0,0,1-3.15,7.55l-.21.21a10.63,10.63,0,0,1-7.48,3.07h-28.3A10.61,10.61,0,0,1,143.61,197.29Z" transform="translate(-50.08 -60.06)" />
    <circle class="cls-15" cx="115.05" cy="117.66" r="5.53" />
    <line class="cls-16" x1="115.05" y1="117.66" x2="115.05" y2="127.59" />
    <path class="cls-17" d="M151.08,160c.13-11.47,3.15-21.15,13.79-21.15,10.89,0,14.39,9.44,14.25,21.15" transform="translate(-50.08 -60.06)" />
</svg>