<svg id="Program" xmlns="http://www.w3.org/2000/svg" viewBox="0 0 151.4 206.68">
    <path d="M54.14,88.28H73.21V69h93.7V87.85h19.4V48.36a7.72,7.72,0,0,0-1.05-3.89l-2.32-4a15.46,15.46,0,0,0-6.6-6.11l-3.28-1.6a9.32,9.32,0,0,0-4.09-.94H70.67a4.59,4.59,0,0,0-1.75.35l-3.29,1.35a18.75,18.75,0,0,0-9,7.81L55.06,44a6.58,6.58,0,0,0-.92,3.36Z" transform="translate(-44.74 -31.85)" />
    <path d="M54.14,182.11H73.21v19.23h93.7V182.53h19.4V222a7.7,7.7,0,0,1-1.05,3.89l-2.32,4a15.46,15.46,0,0,1-6.6,6.11l-3.28,1.6a9.32,9.32,0,0,1-4.09.94H70.67a4.78,4.78,0,0,1-1.75-.34l-3.29-1.35a18.8,18.8,0,0,1-9-7.81l-1.54-2.6a6.63,6.63,0,0,1-.92-3.36Z" transform="translate(-44.74 -31.85)" />
    <g id="Layer_6" data-name="Layer 6">
        <polygon points="43.15 60.26 55.91 72.51 27.19 103.28 55.91 133.02 42.89 146.81 0 103.53 43.15 60.26" />
        <polygon points="108.25 60.26 95.49 72.51 124.21 103.28 95.49 133.02 108.51 146.81 151.4 103.53 108.25 60.26" />
    </g>
</svg>