<svg xmlns="http://www.w3.org/2000/svg" viewBox="0 0 181.98 208.68">
    <defs>
        <style>.cls-18{stroke:#231f20;}.cls-18,.cls-19,.cls-21{stroke-miterlimit:10;}.cls-19,.cls-21{fill:#fff;}.cls-19,.cls-20,.cls-21{stroke:#000;}.cls-19{stroke-width:3px;}.cls-20{fill:none;stroke-linecap:round;stroke-linejoin:round;stroke-width:6px;}.cls-21{stroke-width:7px;}</style>
    </defs>
    <g id="Program">
        <path class="cls-18" d="M54.14,88.28H73.21V69h93.7V87.85h19.4V48.36a7.72,7.72,0,0,0-1.05-3.89l-2.32-4a15.46,15.46,0,0,0-6.6-6.11l-3.28-1.6a9.32,9.32,0,0,0-4.09-.94H70.67a4.59,4.59,0,0,0-1.75.35l-3.29,1.35a18.75,18.75,0,0,0-9,7.81L55.06,44a6.58,6.58,0,0,0-.92,3.36Z" transform="translate(-44.04 -31.35)" />
        <path class="cls-18" d="M54.14,182.11H73.21v19.23h93.7V182.53h19.4V222a7.7,7.7,0,0,1-1.05,3.89l-2.32,4a15.46,15.46,0,0,1-6.6,6.11l-3.28,1.6a9.32,9.32,0,0,1-4.09.94H70.67a4.78,4.78,0,0,1-1.75-.34l-3.29-1.35a18.8,18.8,0,0,1-9-7.81l-1.54-2.6a6.63,6.63,0,0,1-.92-3.36Z" transform="translate(-44.04 -31.35)" />
        <g id="Layer_6" data-name="Layer 6">
            <polygon class="cls-18" points="43.85 60.76 56.62 73.01 27.9 103.78 56.62 133.52 43.6 147.31 0.7 104.03 43.85 60.76" />
            <polygon class="cls-18" points="108.96 60.76 96.19 73.01 124.92 103.78 96.19 133.52 109.22 147.31 152.11 104.03 108.96 60.76" />
        </g>
        <path class="cls-19" d="M136.74,232.41l-1.19-1.23a19.92,19.92,0,0,1-5.55-13.8V184.57a20,20,0,0,1,5-13.25l1.63-1.83h0a20,20,0,0,1,14.88-6.67h52.06a19.87,19.87,0,0,1,12.48,4.4l1,.79a19.93,19.93,0,0,1,7.44,15.52v34.68a19.9,19.9,0,0,1-5.91,14.15l-.41.41a19.91,19.91,0,0,1-14,5.76H151.1A19.9,19.9,0,0,1,136.74,232.41Z" transform="translate(-44.04 -31.35)" />
        <circle cx="133.06" cy="164.35" r="10.38" />
        <line class="cls-20" x1="133.06" y1="164.35" x2="133.06" y2="182.97" />
        <path class="cls-21" d="M150.76,162.41c.24-21.51,5.9-39.67,25.86-39.67,20.44,0,27,17.71,26.74,39.67" transform="translate(-44.04 -31.35)" />
    </g>
</svg>