<svg id="Piston" xmlns="http://www.w3.org/2000/svg" viewBox="0 0 219.88 80.85">
    <defs>
        <style>.cls-7{fill:#231f20;}.cls-8,.cls-9{fill:none;stroke:#231f20;}.cls-8{stroke-linejoin:round;}.cls-9{stroke-miterlimit:10;}</style>
    </defs>
    <path class="cls-7" d="M140.73,24.21V78.38H15.17V24.21H140.73m1-1H14.17V79.38H141.73V23.21Z" transform="translate(-14.17 -10.8)" />
    <polyline class="cls-8" points="14.17 13.16 14.17 67.92 28.34 13.16 42.53 67.92 56.49 13.76 70.87 67.92 85.04 13.16 98.74 67.41 113.38 13.89" />
    <line class="cls-9" x1="113.38" y1="68.58" x2="113.38" y2="12.41" />
    <rect class="cls-8" x="2.79" y="68.18" width="8.6" height="4.3" />
    <rect class="cls-8" x="116.17" y="68.18" width="8.6" height="4.3" />
    <rect class="cls-8" x="2.79" y="8.52" width="8.6" height="4.3" />
    <rect class="cls-8" x="116.17" y="8.52" width="8.6" height="4.3" />
    <path class="cls-8" d="M208.78,13.77a32.24,32.24,0,0,1,24.77,0,22.58,22.58,0,0,1-12.89,3.74A22.52,22.52,0,0,1,208.78,13.77Z" transform="translate(-14.17 -10.8)" />
    <line class="cls-8" x1="194.62" y1="38.04" x2="194.62" y2="2.97" />
    <line class="cls-8" x1="219.38" y1="38.04" x2="219.38" y2="2.97" />
    <path class="cls-8" d="M233.55,88.68a32.24,32.24,0,0,1-24.77,0,22.3,22.3,0,0,1,24.77,0Z" transform="translate(-14.17 -10.8)" />
    <line class="cls-8" x1="219.38" y1="42.82" x2="219.38" y2="77.88" />
    <line class="cls-8" x1="194.62" y1="42.82" x2="194.62" y2="77.88" />
    <path class="cls-7" d="M211.85,26.35a1.5,1.5,0,0,0,0-3,1.5,1.5,0,0,0,0,3Z" transform="translate(-14.17 -10.8)" />
    <path class="cls-7" d="M224.1,26.35a1.5,1.5,0,0,0,0-3,1.5,1.5,0,0,0,0,3Z" transform="translate(-14.17 -10.8)" />
    <path class="cls-7" d="M217.72,22.77a1.5,1.5,0,0,0,0-3,1.5,1.5,0,0,0,0,3Z" transform="translate(-14.17 -10.8)" />
    <path class="cls-7" d="M221.55,41.41a1.5,1.5,0,0,0,0-3,1.5,1.5,0,0,0,0,3Z" transform="translate(-14.17 -10.8)" />
    <path class="cls-7" d="M215.17,36.05a1.5,1.5,0,0,0,0-3,1.5,1.5,0,0,0,0,3Z" transform="translate(-14.17 -10.8)" />
    <path class="cls-7" d="M212.61,46.26a1.5,1.5,0,0,0,0-3,1.5,1.5,0,0,0,0,3Z" transform="translate(-14.17 -10.8)" />
    <path class="cls-7" d="M226.91,31.45a1.5,1.5,0,0,0,0-3,1.5,1.5,0,0,0,0,3Z" transform="translate(-14.17 -10.8)" />
    <path class="cls-7" d="M230,42.69a1.5,1.5,0,0,0,0-3,1.5,1.5,0,0,0,0,3Z" transform="translate(-14.17 -10.8)" />
    <path class="cls-7" d="M229.46,22.52a1.5,1.5,0,0,0,0-3,1.5,1.5,0,0,0,0,3Z" transform="translate(-14.17 -10.8)" />
    <rect class="cls-8" x="127.08" y="34.03" width="4.13" height="12.94" />
    <rect class="cls-8" x="131.21" y="38.26" width="88.17" height="4.55" />
    <line class="cls-8" x1="133.63" y1="38.26" x2="136.95" y2="42.82" />
    <line class="cls-8" x1="140.23" y1="38.26" x2="143.55" y2="42.82" />
    <line class="cls-8" x1="146.31" y1="38.26" x2="149.62" y2="42.82" />
    <line class="cls-8" x1="152.91" y1="38.26" x2="156.22" y2="42.82" />
    <line class="cls-8" x1="158.93" y1="38.26" x2="162.25" y2="42.82" />
    <line class="cls-8" x1="165.53" y1="38.26" x2="168.85" y2="42.82" />
    <line class="cls-8" x1="171.61" y1="38.26" x2="174.92" y2="42.82" />
    <line class="cls-8" x1="178.21" y1="38.26" x2="181.52" y2="42.82" />
    <line class="cls-8" x1="184.16" y1="38.26" x2="187.47" y2="42.82" />
    <line class="cls-8" x1="190.76" y1="38.26" x2="194.07" y2="42.82" />
    <line class="cls-8" x1="196.84" y1="38.26" x2="200.15" y2="42.82" />
    <line class="cls-8" x1="203.44" y1="38.26" x2="206.75" y2="42.82" />
    <line class="cls-8" x1="209.46" y1="38.26" x2="212.77" y2="42.82" />
    <line class="cls-8" x1="216.06" y1="38.26" x2="219.37" y2="42.82" />
</svg>