<?xml version="1.0" encoding="utf-8"?>
<svg xmlns="http://www.w3.org/2000/svg" xmlns:xlink="http://www.w3.org/1999/xlink">

    <svg viewBox="0 0 219.88 80.85" id="retracted_piston">
        <defs>
            <style>.cls-1{fill:#231f20;}.cls-2,.cls-3{fill:none;stroke:#231f20;}.cls-2{stroke-linejoin:round;}.cls-3{stroke-miterlimit:10;}</style>
        </defs>
        <path class="cls-1" d="M140.73,201.25v54.17H15.17V201.25H140.73m1-1H14.17v56.17H141.73V200.25Z" transform="translate(-14.17 -187.84)" />
        <polyline class="cls-2" points="14.17 13.16 14.17 67.92 16.19 13.16 18.22 67.92 20.21 13.76 22.27 67.92 24.29 13.16 26.25 67.41 28.34 13.89" />
        <line class="cls-3" x1="113.38" y1="68.58" x2="113.38" y2="12.41" />
        <rect class="cls-2" x="2.79" y="68.18" width="8.6" height="4.3" />
        <rect class="cls-2" x="116.17" y="68.18" width="8.6" height="4.3" />
        <rect class="cls-2" x="2.79" y="8.52" width="8.6" height="4.3" />
        <rect class="cls-2" x="116.17" y="8.52" width="8.6" height="4.3" />
        <path class="cls-2" d="M208.78,190.81a32.24,32.24,0,0,1,24.77,0,22.35,22.35,0,0,1-24.77,0Z" transform="translate(-14.17 -187.84)" />
        <line class="cls-2" x1="194.62" y1="38.04" x2="194.62" y2="2.97" />
        <line class="cls-2" x1="219.38" y1="38.04" x2="219.38" y2="2.97" />
        <path class="cls-2" d="M233.55,265.72a32.24,32.24,0,0,1-24.77,0,22.35,22.35,0,0,1,24.77,0Z" transform="translate(-14.17 -187.84)" />
        <line class="cls-2" x1="219.38" y1="38.04" x2="219.38" y2="77.88" />
        <line class="cls-2" x1="194.62" y1="42.82" x2="194.62" y2="77.88" />
        <path class="cls-1" d="M211.85,203.39a1.5,1.5,0,0,0,0-3,1.5,1.5,0,0,0,0,3Z" transform="translate(-14.17 -187.84)" />
        <path class="cls-1" d="M224.1,203.39a1.5,1.5,0,0,0,0-3,1.5,1.5,0,0,0,0,3Z" transform="translate(-14.17 -187.84)" />
        <path class="cls-1" d="M217.72,199.82a1.5,1.5,0,0,0,0-3,1.5,1.5,0,0,0,0,3Z" transform="translate(-14.17 -187.84)" />
        <path class="cls-1" d="M221.55,218.45a1.5,1.5,0,0,0,0-3,1.5,1.5,0,0,0,0,3Z" transform="translate(-14.17 -187.84)" />
        <path class="cls-1" d="M215.17,213.09a1.5,1.5,0,0,0,0-3,1.5,1.5,0,0,0,0,3Z" transform="translate(-14.17 -187.84)" />
        <path class="cls-1" d="M212.61,223.31a1.5,1.5,0,0,0,0-3,1.5,1.5,0,0,0,0,3Z" transform="translate(-14.17 -187.84)" />
        <path class="cls-1" d="M226.91,208.5a1.5,1.5,0,0,0,0-3,1.5,1.5,0,0,0,0,3Z" transform="translate(-14.17 -187.84)" />
        <path class="cls-1" d="M230,219.73a1.5,1.5,0,0,0,0-3,1.5,1.5,0,0,0,0,3Z" transform="translate(-14.17 -187.84)" />
        <path class="cls-1" d="M211.85,241.9a1.5,1.5,0,0,0,0-3,1.5,1.5,0,0,0,0,3Z" transform="translate(-14.17 -187.84)" />
        <path class="cls-1" d="M224.1,241.9a1.5,1.5,0,0,0,0-3,1.5,1.5,0,0,0,0,3Z" transform="translate(-14.17 -187.84)" />
        <path class="cls-1" d="M217.72,238.33a1.5,1.5,0,0,0,0-3,1.5,1.5,0,0,0,0,3Z" transform="translate(-14.17 -187.84)" />
        <path class="cls-1" d="M221.55,257a1.5,1.5,0,0,0,0-3,1.5,1.5,0,0,0,0,3Z" transform="translate(-14.17 -187.84)" />
        <path class="cls-1" d="M215.17,251.6a1.5,1.5,0,0,0,0-3,1.5,1.5,0,0,0,0,3Z" transform="translate(-14.17 -187.84)" />
        <path class="cls-1" d="M212.61,261.82a1.5,1.5,0,0,0,0-3,1.5,1.5,0,0,0,0,3Z" transform="translate(-14.17 -187.84)" />
        <path class="cls-1" d="M226.91,247a1.5,1.5,0,0,0,0-3,1.5,1.5,0,0,0,0,3Z" transform="translate(-14.17 -187.84)" />
        <path class="cls-1" d="M230,258.24a1.5,1.5,0,0,0,0-3,1.5,1.5,0,0,0,0,3Z" transform="translate(-14.17 -187.84)" />
        <path class="cls-1" d="M211.85,209.92a1.5,1.5,0,0,0,0-3,1.5,1.5,0,0,0,0,3Z" transform="translate(-14.17 -187.84)" />
        <path class="cls-1" d="M224.1,209.92a1.5,1.5,0,0,0,0-3,1.5,1.5,0,0,0,0,3Z" transform="translate(-14.17 -187.84)" />
        <path class="cls-1" d="M217.72,206.35a1.5,1.5,0,0,0,0-3,1.5,1.5,0,0,0,0,3Z" transform="translate(-14.17 -187.84)" />
        <path class="cls-1" d="M221.55,225a1.5,1.5,0,0,0,0-3,1.5,1.5,0,0,0,0,3Z" transform="translate(-14.17 -187.84)" />
        <path class="cls-1" d="M215.17,219.62a1.5,1.5,0,0,0,0-3,1.5,1.5,0,0,0,0,3Z" transform="translate(-14.17 -187.84)" />
        <path class="cls-1" d="M212.61,229.84a1.5,1.5,0,0,0,0-3,1.5,1.5,0,0,0,0,3Z" transform="translate(-14.17 -187.84)" />
        <path class="cls-1" d="M226.91,215a1.5,1.5,0,0,0,0-3,1.5,1.5,0,0,0,0,3Z" transform="translate(-14.17 -187.84)" />
        <path class="cls-1" d="M230,226.26a1.5,1.5,0,0,0,0-3,1.5,1.5,0,0,0,0,3Z" transform="translate(-14.17 -187.84)" />
        <path class="cls-1" d="M211.85,235.23a1.5,1.5,0,0,0,0-3,1.5,1.5,0,0,0,0,3Z" transform="translate(-14.17 -187.84)" />
        <path class="cls-1" d="M226.14,235.91a1.5,1.5,0,0,0,0-3,1.5,1.5,0,0,0,0,3Z" transform="translate(-14.17 -187.84)" />
        <path class="cls-1" d="M217.72,231.66a1.5,1.5,0,0,0,0-3,1.5,1.5,0,0,0,0,3Z" transform="translate(-14.17 -187.84)" />
        <path class="cls-1" d="M224.36,229.84a1.5,1.5,0,0,0,0-3,1.5,1.5,0,0,0,0,3Z" transform="translate(-14.17 -187.84)" />
        <path class="cls-1" d="M229.46,231.66a1.5,1.5,0,0,0,0-3,1.5,1.5,0,0,0,0,3Z" transform="translate(-14.17 -187.84)" />
        <path class="cls-1" d="M221.55,250.29a1.5,1.5,0,0,0,0-3,1.5,1.5,0,0,0,0,3Z" transform="translate(-14.17 -187.84)" />
        <path class="cls-1" d="M215.17,244.93a1.5,1.5,0,0,0,0-3,1.5,1.5,0,0,0,0,3Z" transform="translate(-14.17 -187.84)" />
        <path class="cls-1" d="M212.61,255.15a1.5,1.5,0,0,0,0-3,1.5,1.5,0,0,0,0,3Z" transform="translate(-14.17 -187.84)" />
        <path class="cls-1" d="M229.46,240.34a1.5,1.5,0,0,0,0-3,1.5,1.5,0,0,0,0,3Z" transform="translate(-14.17 -187.84)" />
        <path class="cls-1" d="M230,251.57a1.5,1.5,0,0,0,0-3,1.5,1.5,0,0,0,0,3Z" transform="translate(-14.17 -187.84)" />
        <path class="cls-1" d="M229.46,199.56a1.5,1.5,0,0,0,0-3,1.5,1.5,0,0,0,0,3Z" transform="translate(-14.17 -187.84)" />
        <rect class="cls-2" x="28.39" y="34.01" width="4.13" height="12.94" />
        <path class="cls-2" d="M127.43,226.08H46.69v4.55h80.82C127.43,229.15,127.36,227.6,127.43,226.08Z" transform="translate(-14.17 -187.84)" />
        <line class="cls-2" x1="34.94" y1="38.24" x2="38.25" y2="42.8" />
        <line class="cls-2" x1="41.54" y1="38.24" x2="44.85" y2="42.8" />
        <line class="cls-2" x1="47.61" y1="38.24" x2="50.93" y2="42.8" />
        <line class="cls-2" x1="54.22" y1="38.24" x2="57.53" y2="42.8" />
        <line class="cls-2" x1="60.24" y1="38.24" x2="63.55" y2="42.8" />
        <line class="cls-2" x1="66.84" y1="38.24" x2="70.15" y2="42.8" />
        <line class="cls-2" x1="72.91" y1="38.24" x2="76.23" y2="42.8" />
        <line class="cls-2" x1="79.52" y1="38.24" x2="82.83" y2="42.8" />
        <line class="cls-2" x1="85.47" y1="38.24" x2="88.78" y2="42.8" />
        <line class="cls-2" x1="92.07" y1="38.24" x2="95.38" y2="42.8" />
        <line class="cls-2" x1="98.14" y1="38.24" x2="101.46" y2="42.8" />
        <line class="cls-2" x1="104.74" y1="38.24" x2="108.06" y2="42.8" />
        <path class="cls-2" d="M124.93,226.08l2.34,3.21" transform="translate(-14.17 -187.84)" />
        <line class="cls-2" x1="28.34" y1="12.8" x2="28.34" y2="68.16" />
    </svg>

    <svg viewBox="0 0 219.88 80.85" id="mid_stroke_piston">
        <defs>
            <style>.cls-4{fill:#231f20;}.cls-5,.cls-6{fill:none;stroke:#231f20;}.cls-5{stroke-linejoin:round;}.cls-6{stroke-miterlimit:10;}</style>
        </defs>
        <path class="cls-4" d="M140.73,111.89v54.17H15.17V111.89H140.73m1-1H14.17v56.17H141.73V110.89Z" transform="translate(-14.17 -98.48)" />
        <polyline class="cls-5" points="14.17 13.16 14.17 67.92 21.25 13.16 28.35 67.92 35.33 13.76 42.52 67.92 49.61 13.16 56.46 67.41 63.78 13.89" />
        <line class="cls-6" x1="113.38" y1="68.58" x2="113.38" y2="12.41" />
        <rect class="cls-5" x="2.79" y="68.18" width="8.6" height="4.3" />
        <rect class="cls-5" x="116.17" y="68.18" width="8.6" height="4.3" />
        <rect class="cls-5" x="2.79" y="8.52" width="8.6" height="4.3" />
        <rect class="cls-5" x="116.17" y="8.52" width="8.6" height="4.3" />
        <rect class="cls-5" x="63.78" y="34.03" width="4.13" height="12.94" />
        <path class="cls-5" d="M208.78,101.45a32.24,32.24,0,0,1,24.77,0,22.3,22.3,0,0,1-24.77,0Z" transform="translate(-14.17 -98.48)" />
        <line class="cls-5" x1="194.62" y1="38.04" x2="194.62" y2="2.97" />
        <line class="cls-5" x1="219.38" y1="42.82" x2="219.38" y2="2.97" />
        <path class="cls-5" d="M233.55,176.36a32.24,32.24,0,0,1-24.77,0,22.35,22.35,0,0,1,24.77,0Z" transform="translate(-14.17 -98.48)" />
        <line class="cls-5" x1="219.38" y1="42.82" x2="219.38" y2="77.88" />
        <line class="cls-5" x1="194.62" y1="42.82" x2="194.62" y2="77.88" />
        <path class="cls-4" d="M211.85,114a1.5,1.5,0,0,0,0-3,1.5,1.5,0,0,0,0,3Z" transform="translate(-14.17 -98.48)" />
        <path class="cls-4" d="M224.1,114a1.5,1.5,0,0,0,0-3,1.5,1.5,0,0,0,0,3Z" transform="translate(-14.17 -98.48)" />
        <path class="cls-4" d="M217.72,110.46a1.5,1.5,0,0,0,0-3,1.5,1.5,0,0,0,0,3Z" transform="translate(-14.17 -98.48)" />
        <path class="cls-4" d="M221.55,129.1a1.5,1.5,0,0,0,0-3,1.5,1.5,0,0,0,0,3Z" transform="translate(-14.17 -98.48)" />
        <path class="cls-4" d="M215.17,123.73a1.5,1.5,0,0,0,0-3,1.5,1.5,0,0,0,0,3Z" transform="translate(-14.17 -98.48)" />
        <path class="cls-4" d="M212.61,134a1.5,1.5,0,0,0,0-3,1.5,1.5,0,0,0,0,3Z" transform="translate(-14.17 -98.48)" />
        <path class="cls-4" d="M226.91,119.14a1.5,1.5,0,0,0,0-3,1.5,1.5,0,0,0,0,3Z" transform="translate(-14.17 -98.48)" />
        <path class="cls-4" d="M230,130.37a1.5,1.5,0,0,0,0-3,1.5,1.5,0,0,0,0,3Z" transform="translate(-14.17 -98.48)" />
        <path class="cls-4" d="M229.46,110.2a1.5,1.5,0,0,0,0-3,1.5,1.5,0,0,0,0,3Z" transform="translate(-14.17 -98.48)" />
        <path class="cls-4" d="M228.06,151.05a1.5,1.5,0,0,0,0-3,1.5,1.5,0,0,0,0,3Z" transform="translate(-14.17 -98.48)" />
        <path class="cls-4" d="M224.1,142.9a1.5,1.5,0,0,0,0-3,1.5,1.5,0,0,0,0,3Z" transform="translate(-14.17 -98.48)" />
        <path class="cls-4" d="M217.72,139.33a1.5,1.5,0,0,0,0-3,1.5,1.5,0,0,0,0,3Z" transform="translate(-14.17 -98.48)" />
        <path class="cls-4" d="M221.55,158a1.5,1.5,0,0,0,0-3,1.5,1.5,0,0,0,0,3Z" transform="translate(-14.17 -98.48)" />
        <path class="cls-4" d="M215.17,152.61a1.5,1.5,0,0,0,0-3,1.5,1.5,0,0,0,0,3Z" transform="translate(-14.17 -98.48)" />
        <path class="cls-4" d="M212.61,162.82a1.5,1.5,0,0,0,0-3,1.5,1.5,0,0,0,0,3Z" transform="translate(-14.17 -98.48)" />
        <path class="cls-4" d="M230,159.24a1.5,1.5,0,0,0,0-3,1.5,1.5,0,0,0,0,3Z" transform="translate(-14.17 -98.48)" />
        <path class="cls-4" d="M229.46,139.07a1.5,1.5,0,0,0,0-3,1.5,1.5,0,0,0,0,3Z" transform="translate(-14.17 -98.48)" />
        <path class="cls-5" d="M127.4,136.7H82v4.56h45.42C127.51,139.74,127.44,138.22,127.4,136.7Z" transform="translate(-14.17 -98.48)" />
        <path class="cls-5" d="M142,136.7c0,.21,0,.43,0,.63v3.93h28.18V136.7Z" transform="translate(-14.17 -98.48)" />
        <line class="cls-5" x1="70.27" y1="38.22" x2="73.59" y2="42.78" />
        <line class="cls-5" x1="76.88" y1="38.22" x2="80.19" y2="42.78" />
        <line class="cls-5" x1="82.95" y1="38.22" x2="86.26" y2="42.78" />
        <line class="cls-5" x1="89.55" y1="38.22" x2="92.86" y2="42.78" />
        <line class="cls-5" x1="95.57" y1="38.22" x2="98.89" y2="42.78" />
        <line class="cls-5" x1="102.17" y1="38.22" x2="105.49" y2="42.78" />
        <line class="cls-5" x1="108.25" y1="38.22" x2="111.56" y2="42.78" />
        <path class="cls-5" d="M142.2,137.57l2.68,3.69" transform="translate(-14.17 -98.48)" />
        <line class="cls-5" x1="133.48" y1="38.22" x2="136.79" y2="42.78" />
        <line class="cls-5" x1="140.08" y1="38.22" x2="143.39" y2="42.78" />
        <line class="cls-5" x1="146.1" y1="38.22" x2="149.41" y2="42.78" />
        <line class="cls-5" x1="152.7" y1="38.22" x2="156.02" y2="42.78" />
        <line class="cls-5" x1="63.78" y1="12.82" x2="63.78" y2="68.18" />
    </svg>

    <svg viewBox="0 0 219.88 80.85" id="extended_piston">
        <defs>
            <style>.cls-7{fill:#231f20;}.cls-8,.cls-9{fill:none;stroke:#231f20;}.cls-8{stroke-linejoin:round;}.cls-9{stroke-miterlimit:10;}</style>
        </defs>
        <path class="cls-7" d="M140.73,24.21V78.38H15.17V24.21H140.73m1-1H14.17V79.38H141.73V23.21Z" transform="translate(-14.17 -10.8)" />
        <polyline class="cls-8" points="14.17 13.16 14.17 67.92 28.34 13.16 42.53 67.92 56.49 13.76 70.87 67.92 85.04 13.16 98.74 67.41 113.38 13.89" />
        <line class="cls-9" x1="113.38" y1="68.58" x2="113.38" y2="12.41" />
        <rect class="cls-8" x="2.79" y="68.18" width="8.6" height="4.3" />
        <rect class="cls-8" x="116.17" y="68.18" width="8.6" height="4.3" />
        <rect class="cls-8" x="2.79" y="8.52" width="8.6" height="4.3" />
        <rect class="cls-8" x="116.17" y="8.52" width="8.6" height="4.3" />
        <path class="cls-8" d="M208.78,13.77a32.24,32.24,0,0,1,24.77,0,22.58,22.58,0,0,1-12.89,3.74A22.52,22.52,0,0,1,208.78,13.77Z" transform="translate(-14.17 -10.8)" />
        <line class="cls-8" x1="194.62" y1="38.04" x2="194.62" y2="2.97" />
        <line class="cls-8" x1="219.38" y1="38.04" x2="219.38" y2="2.97" />
        <path class="cls-8" d="M233.55,88.68a32.24,32.24,0,0,1-24.77,0,22.3,22.3,0,0,1,24.77,0Z" transform="translate(-14.17 -10.8)" />
        <line class="cls-8" x1="219.38" y1="42.82" x2="219.38" y2="77.88" />
        <line class="cls-8" x1="194.62" y1="42.82" x2="194.62" y2="77.88" />
        <path class="cls-7" d="M211.85,26.35a1.5,1.5,0,0,0,0-3,1.5,1.5,0,0,0,0,3Z" transform="translate(-14.17 -10.8)" />
        <path class="cls-7" d="M224.1,26.35a1.5,1.5,0,0,0,0-3,1.5,1.5,0,0,0,0,3Z" transform="translate(-14.17 -10.8)" />
        <path class="cls-7" d="M217.72,22.77a1.5,1.5,0,0,0,0-3,1.5,1.5,0,0,0,0,3Z" transform="translate(-14.17 -10.8)" />
        <path class="cls-7" d="M221.55,41.41a1.5,1.5,0,0,0,0-3,1.5,1.5,0,0,0,0,3Z" transform="translate(-14.17 -10.8)" />
        <path class="cls-7" d="M215.17,36.05a1.5,1.5,0,0,0,0-3,1.5,1.5,0,0,0,0,3Z" transform="translate(-14.17 -10.8)" />
        <path class="cls-7" d="M212.61,46.26a1.5,1.5,0,0,0,0-3,1.5,1.5,0,0,0,0,3Z" transform="translate(-14.17 -10.8)" />
        <path class="cls-7" d="M226.91,31.45a1.5,1.5,0,0,0,0-3,1.5,1.5,0,0,0,0,3Z" transform="translate(-14.17 -10.8)" />
        <path class="cls-7" d="M230,42.69a1.5,1.5,0,0,0,0-3,1.5,1.5,0,0,0,0,3Z" transform="translate(-14.17 -10.8)" />
        <path class="cls-7" d="M229.46,22.52a1.5,1.5,0,0,0,0-3,1.5,1.5,0,0,0,0,3Z" transform="translate(-14.17 -10.8)" />
        <rect class="cls-8" x="127.08" y="34.03" width="4.13" height="12.94" />
        <rect class="cls-8" x="131.21" y="38.26" width="88.17" height="4.55" />
        <line class="cls-8" x1="133.63" y1="38.26" x2="136.95" y2="42.82" />
        <line class="cls-8" x1="140.23" y1="38.26" x2="143.55" y2="42.82" />
        <line class="cls-8" x1="146.31" y1="38.26" x2="149.62" y2="42.82" />
        <line class="cls-8" x1="152.91" y1="38.26" x2="156.22" y2="42.82" />
        <line class="cls-8" x1="158.93" y1="38.26" x2="162.25" y2="42.82" />
        <line class="cls-8" x1="165.53" y1="38.26" x2="168.85" y2="42.82" />
        <line class="cls-8" x1="171.61" y1="38.26" x2="174.92" y2="42.82" />
        <line class="cls-8" x1="178.21" y1="38.26" x2="181.52" y2="42.82" />
        <line class="cls-8" x1="184.16" y1="38.26" x2="187.47" y2="42.82" />
        <line class="cls-8" x1="190.76" y1="38.26" x2="194.07" y2="42.82" />
        <line class="cls-8" x1="196.84" y1="38.26" x2="200.15" y2="42.82" />
        <line class="cls-8" x1="203.44" y1="38.26" x2="206.75" y2="42.82" />
        <line class="cls-8" x1="209.46" y1="38.26" x2="212.77" y2="42.82" />
        <line class="cls-8" x1="216.06" y1="38.26" x2="219.37" y2="42.82" />
    </svg>

    <svg viewBox="0 0 141.82 142.36" id="operator">
        <defs>
            <style>.cls-10,.cls-11{fill:none;stroke:#000;stroke-linejoin:round;stroke-width:12px;}.cls-11{stroke-linecap:round;}</style>
        </defs>
        <circle class="cls-10" cx="70.38" cy="35.62" r="29.62" />
        <path class="cls-11" d="M185.78,196.42H56.08v-22c8.06-6.65,28.41-21.57,57.73-23.69,37.86-2.73,64.71,17.75,72,23.69v20.6" transform="translate(-50.08 -60.06)" />
    </svg>

    <svg viewBox="0 0 141.82 142.36" id="operator_locked">
        <defs>
            <style>.cls-12,.cls-13{fill:none;stroke-width:12px;}.cls-12,.cls-13,.cls-14,.cls-15,.cls-16,.cls-17{stroke:#000;}.cls-12,.cls-13,.cls-16{stroke-linejoin:round;}.cls-13,.cls-16{stroke-linecap:round;}.cls-14,.cls-16,.cls-17{fill:#fff;}.cls-14,.cls-15,.cls-17{stroke-miterlimit:10;}.cls-14{stroke-width:3px;}.cls-16{stroke-width:6px;}.cls-17{stroke-width:7px;}</style>
        </defs>
        <circle class="cls-12" cx="70.38" cy="35.62" r="29.62" />
        <path class="cls-13" d="M185.78,196.42H56.08v-22c8.06-6.65,28.41-21.57,57.73-23.69,37.86-2.73,64.71,17.75,72,23.69v20.6" transform="translate(-50.08 -60.06)" />
        <path class="cls-14" d="M143.61,197.29l-.63-.65a10.63,10.63,0,0,1-3-7.36V171.79a10.59,10.59,0,0,1,2.68-7.06l.87-1h0a10.64,10.64,0,0,1,7.93-3.56h27.75a10.61,10.61,0,0,1,6.66,2.35l.53.42a10.64,10.64,0,0,1,4,8.27v18.49a10.62,10.62,0,0,1-3.15,7.55l-.21.21a10.63,10.63,0,0,1-7.48,3.07h-28.3A10.61,10.61,0,0,1,143.61,197.29Z" transform="translate(-50.08 -60.06)" />
        <circle class="cls-15" cx="115.05" cy="117.66" r="5.53" />
        <line class="cls-16" x1="115.05" y1="117.66" x2="115.05" y2="127.59" />
        <path class="cls-17" d="M151.08,160c.13-11.47,3.15-21.15,13.79-21.15,10.89,0,14.39,9.44,14.25,21.15" transform="translate(-50.08 -60.06)" />
    </svg>

    <svg viewBox="0 0 151.4 206.68" id="program">
        <path d="M54.14,88.28H73.21V69h93.7V87.85h19.4V48.36a7.72,7.72,0,0,0-1.05-3.89l-2.32-4a15.46,15.46,0,0,0-6.6-6.11l-3.28-1.6a9.32,9.32,0,0,0-4.09-.94H70.67a4.59,4.59,0,0,0-1.75.35l-3.29,1.35a18.75,18.75,0,0,0-9,7.81L55.06,44a6.58,6.58,0,0,0-.92,3.36Z" transform="translate(-44.74 -31.85)" />
    <path d="M54.14,182.11H73.21v19.23h93.7V182.53h19.4V222a7.7,7.7,0,0,1-1.05,3.89l-2.32,4a15.46,15.46,0,0,1-6.6,6.11l-3.28,1.6a9.32,9.32,0,0,1-4.09.94H70.67a4.78,4.78,0,0,1-1.75-.34l-3.29-1.35a18.8,18.8,0,0,1-9-7.81l-1.54-2.6a6.63,6.63,0,0,1-.92-3.36Z" transform="translate(-44.74 -31.85)" />
    <g id="Layer_6" data-name="Layer 6">
        <polygon points="43.15 60.26 55.91 72.51 27.19 103.28 55.91 133.02 42.89 146.81 0 103.53 43.15 60.26" />
        <polygon points="108.25 60.26 95.49 72.51 124.21 103.28 95.49 133.02 108.51 146.81 151.4 103.53 108.25 60.26" />
    </g>
    </svg>

</svg>