<?xml version="1.0" encoding="utf-8"?>
<svg xmlns="http://www.w3.org/2000/svg" xmlns:xlink="http://www.w3.org/1999/xlink">

    <svg viewBox="0 0 219.88 80.85" id="retracted_piston">
        <defs>
            <style>.cls-1{fill:#231f20;}.cls-2,.cls-3{fill:none;stroke:#231f20;}.cls-2{stroke-linejoin:round;}.cls-3{stroke-miterlimit:10;}</style>
        </defs>
        <path class="cls-1" d="M140.73,201.25v54.17H15.17V201.25H140.73m1-1H14.17v56.17H141.73V200.25Z" transform="translate(-14.17 -187.84)" />
        <polyline class="cls-2" points="14.17 13.16 14.17 67.92 16.19 13.16 18.22 67.92 20.21 13.76 22.27 67.92 24.29 13.16 26.25 67.41 28.34 13.89" />
        <line class="cls-3" x1="113.38" y1="68.58" x2="113.38" y2="12.41" />
        <rect class="cls-2" x="2.79" y="68.18" width="8.6" height="4.3" />
        <rect class="cls-2" x="116.17" y="68.18" width="8.6" height="4.3" />
        <rect class="cls-2" x="2.79" y="8.52" width="8.6" height="4.3" />
        <rect class="cls-2" x="116.17" y="8.52" width="8.6" height="4.3" />
        <path class="cls-2" d="M208.78,190.81a32.24,32.24,0,0,1,24.77,0,22.35,22.35,0,0,1-24.77,0Z" transform="translate(-14.17 -187.84)" />
        <line class="cls-2" x1="194.62" y1="38.04" x2="194.62" y2="2.97" />
        <line class="cls-2" x1="219.38" y1="38.04" x2="219.38" y2="2.97" />
        <path class="cls-2" d="M233.55,265.72a32.24,32.24,0,0,1-24.77,0,22.35,22.35,0,0,1,24.77,0Z" transform="translate(-14.17 -187.84)" />
        <line class="cls-2" x1="219.38" y1="38.04" x2="219.38" y2="77.88" />
        <line class="cls-2" x1="194.62" y1="42.82" x2="194.62" y2="77.88" />
        <path class="cls-1" d="M211.85,203.39a1.5,1.5,0,0,0,0-3,1.5,1.5,0,0,0,0,3Z" transform="translate(-14.17 -187.84)" />
        <path class="cls-1" d="M224.1,203.39a1.5,1.5,0,0,0,0-3,1.5,1.5,0,0,0,0,3Z" transform="translate(-14.17 -187.84)" />
        <path class="cls-1" d="M217.72,199.82a1.5,1.5,0,0,0,0-3,1.5,1.5,0,0,0,0,3Z" transform="translate(-14.17 -187.84)" />
        <path class="cls-1" d="M221.55,218.45a1.5,1.5,0,0,0,0-3,1.5,1.5,0,0,0,0,3Z" transform="translate(-14.17 -187.84)" />
        <path class="cls-1" d="M215.17,213.09a1.5,1.5,0,0,0,0-3,1.5,1.5,0,0,0,0,3Z" transform="translate(-14.17 -187.84)" />
        <path class="cls-1" d="M212.61,223.31a1.5,1.5,0,0,0,0-3,1.5,1.5,0,0,0,0,3Z" transform="translate(-14.17 -187.84)" />
        <path class="cls-1" d="M226.91,208.5a1.5,1.5,0,0,0,0-3,1.5,1.5,0,0,0,0,3Z" transform="translate(-14.17 -187.84)" />
        <path class="cls-1" d="M230,219.73a1.5,1.5,0,0,0,0-3,1.5,1.5,0,0,0,0,3Z" transform="translate(-14.17 -187.84)" />
        <path class="cls-1" d="M211.85,241.9a1.5,1.5,0,0,0,0-3,1.5,1.5,0,0,0,0,3Z" transform="translate(-14.17 -187.84)" />
        <path class="cls-1" d="M224.1,241.9a1.5,1.5,0,0,0,0-3,1.5,1.5,0,0,0,0,3Z" transform="translate(-14.17 -187.84)" />
        <path class="cls-1" d="M217.72,238.33a1.5,1.5,0,0,0,0-3,1.5,1.5,0,0,0,0,3Z" transform="translate(-14.17 -187.84)" />
        <path class="cls-1" d="M221.55,257a1.5,1.5,0,0,0,0-3,1.5,1.5,0,0,0,0,3Z" transform="translate(-14.17 -187.84)" />
        <path class="cls-1" d="M215.17,251.6a1.5,1.5,0,0,0,0-3,1.5,1.5,0,0,0,0,3Z" transform="translate(-14.17 -187.84)" />
        <path class="cls-1" d="M212.61,261.82a1.5,1.5,0,0,0,0-3,1.5,1.5,0,0,0,0,3Z" transform="translate(-14.17 -187.84)" />
        <path class="cls-1" d="M226.91,247a1.5,1.5,0,0,0,0-3,1.5,1.5,0,0,0,0,3Z" transform="translate(-14.17 -187.84)" />
        <path class="cls-1" d="M230,258.24a1.5,1.5,0,0,0,0-3,1.5,1.5,0,0,0,0,3Z" transform="translate(-14.17 -187.84)" />
        <path class="cls-1" d="M211.85,209.92a1.5,1.5,0,0,0,0-3,1.5,1.5,0,0,0,0,3Z" transform="translate(-14.17 -187.84)" />
        <path class="cls-1" d="M224.1,209.92a1.5,1.5,0,0,0,0-3,1.5,1.5,0,0,0,0,3Z" transform="translate(-14.17 -187.84)" />
        <path class="cls-1" d="M217.72,206.35a1.5,1.5,0,0,0,0-3,1.5,1.5,0,0,0,0,3Z" transform="translate(-14.17 -187.84)" />
        <path class="cls-1" d="M221.55,225a1.5,1.5,0,0,0,0-3,1.5,1.5,0,0,0,0,3Z" transform="translate(-14.17 -187.84)" />
        <path class="cls-1" d="M215.17,219.62a1.5,1.5,0,0,0,0-3,1.5,1.5,0,0,0,0,3Z" transform="translate(-14.17 -187.84)" />
        <path class="cls-1" d="M212.61,229.84a1.5,1.5,0,0,0,0-3,1.5,1.5,0,0,0,0,3Z" transform="translate(-14.17 -187.84)" />
        <path class="cls-1" d="M226.91,215a1.5,1.5,0,0,0,0-3,1.5,1.5,0,0,0,0,3Z" transform="translate(-14.17 -187.84)" />
        <path class="cls-1" d="M230,226.26a1.5,1.5,0,0,0,0-3,1.5,1.5,0,0,0,0,3Z" transform="translate(-14.17 -187.84)" />
        <path class="cls-1" d="M211.85,235.23a1.5,1.5,0,0,0,0-3,1.5,1.5,0,0,0,0,3Z" transform="translate(-14.17 -187.84)" />
        <path class="cls-1" d="M226.14,235.91a1.5,1.5,0,0,0,0-3,1.5,1.5,0,0,0,0,3Z" transform="translate(-14.17 -187.84)" />
        <path class="cls-1" d="M217.72,231.66a1.5,1.5,0,0,0,0-3,1.5,1.5,0,0,0,0,3Z" transform="translate(-14.17 -187.84)" />
        <path class="cls-1" d="M224.36,229.84a1.5,1.5,0,0,0,0-3,1.5,1.5,0,0,0,0,3Z" transform="translate(-14.17 -187.84)" />
        <path class="cls-1" d="M229.46,231.66a1.5,1.5,0,0,0,0-3,1.5,1.5,0,0,0,0,3Z" transform="translate(-14.17 -187.84)" />
        <path class="cls-1" d="M221.55,250.29a1.5,1.5,0,0,0,0-3,1.5,1.5,0,0,0,0,3Z" transform="translate(-14.17 -187.84)" />
        <path class="cls-1" d="M215.17,244.93a1.5,1.5,0,0,0,0-3,1.5,1.5,0,0,0,0,3Z" transform="translate(-14.17 -187.84)" />
        <path class="cls-1" d="M212.61,255.15a1.5,1.5,0,0,0,0-3,1.5,1.5,0,0,0,0,3Z" transform="translate(-14.17 -187.84)" />
        <path class="cls-1" d="M229.46,240.34a1.5,1.5,0,0,0,0-3,1.5,1.5,0,0,0,0,3Z" transform="translate(-14.17 -187.84)" />
        <path class="cls-1" d="M230,251.57a1.5,1.5,0,0,0,0-3,1.5,1.5,0,0,0,0,3Z" transform="translate(-14.17 -187.84)" />
        <path class="cls-1" d="M229.46,199.56a1.5,1.5,0,0,0,0-3,1.5,1.5,0,0,0,0,3Z" transform="translate(-14.17 -187.84)" />
        <rect class="cls-2" x="28.39" y="34.01" width="4.13" height="12.94" />
        <path class="cls-2" d="M127.43,226.08H46.69v4.55h80.82C127.43,229.15,127.36,227.6,127.43,226.08Z" transform="translate(-14.17 -187.84)" />
        <line class="cls-2" x1="34.94" y1="38.24" x2="38.25" y2="42.8" />
        <line class="cls-2" x1="41.54" y1="38.24" x2="44.85" y2="42.8" />
        <line class="cls-2" x1="47.61" y1="38.24" x2="50.93" y2="42.8" />
        <line class="cls-2" x1="54.22" y1="38.24" x2="57.53" y2="42.8" />
        <line class="cls-2" x1="60.24" y1="38.24" x2="63.55" y2="42.8" />
        <line class="cls-2" x1="66.84" y1="38.24" x2="70.15" y2="42.8" />
        <line class="cls-2" x1="72.91" y1="38.24" x2="76.23" y2="42.8" />
        <line class="cls-2" x1="79.52" y1="38.24" x2="82.83" y2="42.8" />
        <line class="cls-2" x1="85.47" y1="38.24" x2="88.78" y2="42.8" />
        <line class="cls-2" x1="92.07" y1="38.24" x2="95.38" y2="42.8" />
        <line class="cls-2" x1="98.14" y1="38.24" x2="101.46" y2="42.8" />
        <line class="cls-2" x1="104.74" y1="38.24" x2="108.06" y2="42.8" />
        <path class="cls-2" d="M124.93,226.08l2.34,3.21" transform="translate(-14.17 -187.84)" />
        <line class="cls-2" x1="28.34" y1="12.8" x2="28.34" y2="68.16" />
    </svg>

    <svg viewBox="0 0 219.88 80.85" id="mid_stroke_piston">
        <defs>
            <style>.cls-4{fill:#231f20;}.cls-5,.cls-6{fill:none;stroke:#231f20;}.cls-5{stroke-linejoin:round;}.cls-6{stroke-miterlimit:10;}</style>
        </defs>
        <path class="cls-4" d="M140.73,111.89v54.17H15.17V111.89H140.73m1-1H14.17v56.17H141.73V110.89Z" transform="translate(-14.17 -98.48)" />
        <polyline class="cls-5" points="14.17 13.16 14.17 67.92 21.25 13.16 28.35 67.92 35.33 13.76 42.52 67.92 49.61 13.16 56.46 67.41 63.78 13.89" />
        <line class="cls-6" x1="113.38" y1="68.58" x2="113.38" y2="12.41" />
        <rect class="cls-5" x="2.79" y="68.18" width="8.6" height="4.3" />
        <rect class="cls-5" x="116.17" y="68.18" width="8.6" height="4.3" />
        <rect class="cls-5" x="2.79" y="8.52" width="8.6" height="4.3" />
        <rect class="cls-5" x="116.17" y="8.52" width="8.6" height="4.3" />
        <rect class="cls-5" x="63.78" y="34.03" width="4.13" height="12.94" />
        <path class="cls-5" d="M208.78,101.45a32.24,32.24,0,0,1,24.77,0,22.3,22.3,0,0,1-24.77,0Z" transform="translate(-14.17 -98.48)" />
        <line class="cls-5" x1="194.62" y1="38.04" x2="194.62" y2="2.97" />
        <line class="cls-5" x1="219.38" y1="42.82" x2="219.38" y2="2.97" />
        <path class="cls-5" d="M233.55,176.36a32.24,32.24,0,0,1-24.77,0,22.35,22.35,0,0,1,24.77,0Z" transform="translate(-14.17 -98.48)" />
        <line class="cls-5" x1="219.38" y1="42.82" x2="219.38" y2="77.88" />
        <line class="cls-5" x1="194.62" y1="42.82" x2="194.62" y2="77.88" />
        <path class="cls-4" d="M211.85,114a1.5,1.5,0,0,0,0-3,1.5,1.5,0,0,0,0,3Z" transform="translate(-14.17 -98.48)" />
        <path class="cls-4" d="M224.1,114a1.5,1.5,0,0,0,0-3,1.5,1.5,0,0,0,0,3Z" transform="translate(-14.17 -98.48)" />
        <path class="cls-4" d="M217.72,110.46a1.5,1.5,0,0,0,0-3,1.5,1.5,0,0,0,0,3Z" transform="translate(-14.17 -98.48)" />
        <path class="cls-4" d="M221.55,129.1a1.5,1.5,0,0,0,0-3,1.5,1.5,0,0,0,0,3Z" transform="translate(-14.17 -98.48)" />
        <path class="cls-4" d="M215.17,123.73a1.5,1.5,0,0,0,0-3,1.5,1.5,0,0,0,0,3Z" transform="translate(-14.17 -98.48)" />
        <path class="cls-4" d="M212.61,134a1.5,1.5,0,0,0,0-3,1.5,1.5,0,0,0,0,3Z" transform="translate(-14.17 -98.48)" />
        <path class="cls-4" d="M226.91,119.14a1.5,1.5,0,0,0,0-3,1.5,1.5,0,0,0,0,3Z" transform="translate(-14.17 -98.48)" />
        <path class="cls-4" d="M230,130.37a1.5,1.5,0,0,0,0-3,1.5,1.5,0,0,0,0,3Z" transform="translate(-14.17 -98.48)" />
        <path class="cls-4" d="M229.46,110.2a1.5,1.5,0,0,0,0-3,1.5,1.5,0,0,0,0,3Z" transform="translate(-14.17 -98.48)" />
        <path class="cls-4" d="M228.06,151.05a1.5,1.5,0,0,0,0-3,1.5,1.5,0,0,0,0,3Z" transform="translate(-14.17 -98.48)" />
        <path class="cls-4" d="M224.1,142.9a1.5,1.5,0,0,0,0-3,1.5,1.5,0,0,0,0,3Z" transform="translate(-14.17 -98.48)" />
        <path class="cls-4" d="M217.72,139.33a1.5,1.5,0,0,0,0-3,1.5,1.5,0,0,0,0,3Z" transform="translate(-14.17 -98.48)" />
        <path class="cls-4" d="M221.55,158a1.5,1.5,0,0,0,0-3,1.5,1.5,0,0,0,0,3Z" transform="translate(-14.17 -98.48)" />
        <path class="cls-4" d="M215.17,152.61a1.5,1.5,0,0,0,0-3,1.5,1.5,0,0,0,0,3Z" transform="translate(-14.17 -98.48)" />
        <path class="cls-4" d="M212.61,162.82a1.5,1.5,0,0,0,0-3,1.5,1.5,0,0,0,0,3Z" transform="translate(-14.17 -98.48)" />
        <path class="cls-4" d="M230,159.24a1.5,1.5,0,0,0,0-3,1.5,1.5,0,0,0,0,3Z" transform="translate(-14.17 -98.48)" />
        <path class="cls-4" d="M229.46,139.07a1.5,1.5,0,0,0,0-3,1.5,1.5,0,0,0,0,3Z" transform="translate(-14.17 -98.48)" />
        <path class="cls-5" d="M127.4,136.7H82v4.56h45.42C127.51,139.74,127.44,138.22,127.4,136.7Z" transform="translate(-14.17 -98.48)" />
        <path class="cls-5" d="M142,136.7c0,.21,0,.43,0,.63v3.93h28.18V136.7Z" transform="translate(-14.17 -98.48)" />
        <line class="cls-5" x1="70.27" y1="38.22" x2="73.59" y2="42.78" />
        <line class="cls-5" x1="76.88" y1="38.22" x2="80.19" y2="42.78" />
        <line class="cls-5" x1="82.95" y1="38.22" x2="86.26" y2="42.78" />
        <line class="cls-5" x1="89.55" y1="38.22" x2="92.86" y2="42.78" />
        <line class="cls-5" x1="95.57" y1="38.22" x2="98.89" y2="42.78" />
        <line class="cls-5" x1="102.17" y1="38.22" x2="105.49" y2="42.78" />
        <line class="cls-5" x1="108.25" y1="38.22" x2="111.56" y2="42.78" />
        <path class="cls-5" d="M142.2,137.57l2.68,3.69" transform="translate(-14.17 -98.48)" />
        <line class="cls-5" x1="133.48" y1="38.22" x2="136.79" y2="42.78" />
        <line class="cls-5" x1="140.08" y1="38.22" x2="143.39" y2="42.78" />
        <line class="cls-5" x1="146.1" y1="38.22" x2="149.41" y2="42.78" />
        <line class="cls-5" x1="152.7" y1="38.22" x2="156.02" y2="42.78" />
        <line class="cls-5" x1="63.78" y1="12.82" x2="63.78" y2="68.18" />
    </svg>

    <svg viewBox="0 0 219.88 80.85" id="extended_piston">
        <defs>
            <style>.cls-7{fill:#231f20;}.cls-8,.cls-9{fill:none;stroke:#231f20;}.cls-8{stroke-linejoin:round;}.cls-9{stroke-miterlimit:10;}</style>
        </defs>
        <path class="cls-7" d="M140.73,24.21V78.38H15.17V24.21H140.73m1-1H14.17V79.38H141.73V23.21Z" transform="translate(-14.17 -10.8)" />
        <polyline class="cls-8" points="14.17 13.16 14.17 67.92 28.34 13.16 42.53 67.92 56.49 13.76 70.87 67.92 85.04 13.16 98.74 67.41 113.38 13.89" />
        <line class="cls-9" x1="113.38" y1="68.58" x2="113.38" y2="12.41" />
        <rect class="cls-8" x="2.79" y="68.18" width="8.6" height="4.3" />
        <rect class="cls-8" x="116.17" y="68.18" width="8.6" height="4.3" />
        <rect class="cls-8" x="2.79" y="8.52" width="8.6" height="4.3" />
        <rect class="cls-8" x="116.17" y="8.52" width="8.6" height="4.3" />
        <path class="cls-8" d="M208.78,13.77a32.24,32.24,0,0,1,24.77,0,22.58,22.58,0,0,1-12.89,3.74A22.52,22.52,0,0,1,208.78,13.77Z" transform="translate(-14.17 -10.8)" />
        <line class="cls-8" x1="194.62" y1="38.04" x2="194.62" y2="2.97" />
        <line class="cls-8" x1="219.38" y1="38.04" x2="219.38" y2="2.97" />
        <path class="cls-8" d="M233.55,88.68a32.24,32.24,0,0,1-24.77,0,22.3,22.3,0,0,1,24.77,0Z" transform="translate(-14.17 -10.8)" />
        <line class="cls-8" x1="219.38" y1="42.82" x2="219.38" y2="77.88" />
        <line class="cls-8" x1="194.62" y1="42.82" x2="194.62" y2="77.88" />
        <path class="cls-7" d="M211.85,26.35a1.5,1.5,0,0,0,0-3,1.5,1.5,0,0,0,0,3Z" transform="translate(-14.17 -10.8)" />
        <path class="cls-7" d="M224.1,26.35a1.5,1.5,0,0,0,0-3,1.5,1.5,0,0,0,0,3Z" transform="translate(-14.17 -10.8)" />
        <path class="cls-7" d="M217.72,22.77a1.5,1.5,0,0,0,0-3,1.5,1.5,0,0,0,0,3Z" transform="translate(-14.17 -10.8)" />
        <path class="cls-7" d="M221.55,41.41a1.5,1.5,0,0,0,0-3,1.5,1.5,0,0,0,0,3Z" transform="translate(-14.17 -10.8)" />
        <path class="cls-7" d="M215.17,36.05a1.5,1.5,0,0,0,0-3,1.5,1.5,0,0,0,0,3Z" transform="translate(-14.17 -10.8)" />
        <path class="cls-7" d="M212.61,46.26a1.5,1.5,0,0,0,0-3,1.5,1.5,0,0,0,0,3Z" transform="translate(-14.17 -10.8)" />
        <path class="cls-7" d="M226.91,31.45a1.5,1.5,0,0,0,0-3,1.5,1.5,0,0,0,0,3Z" transform="translate(-14.17 -10.8)" />
        <path class="cls-7" d="M230,42.69a1.5,1.5,0,0,0,0-3,1.5,1.5,0,0,0,0,3Z" transform="translate(-14.17 -10.8)" />
        <path class="cls-7" d="M229.46,22.52a1.5,1.5,0,0,0,0-3,1.5,1.5,0,0,0,0,3Z" transform="translate(-14.17 -10.8)" />
        <rect class="cls-8" x="127.08" y="34.03" width="4.13" height="12.94" />
        <rect class="cls-8" x="131.21" y="38.26" width="88.17" height="4.55" />
        <line class="cls-8" x1="133.63" y1="38.26" x2="136.95" y2="42.82" />
        <line class="cls-8" x1="140.23" y1="38.26" x2="143.55" y2="42.82" />
        <line class="cls-8" x1="146.31" y1="38.26" x2="149.62" y2="42.82" />
        <line class="cls-8" x1="152.91" y1="38.26" x2="156.22" y2="42.82" />
        <line class="cls-8" x1="158.93" y1="38.26" x2="162.25" y2="42.82" />
        <line class="cls-8" x1="165.53" y1="38.26" x2="168.85" y2="42.82" />
        <line class="cls-8" x1="171.61" y1="38.26" x2="174.92" y2="42.82" />
        <line class="cls-8" x1="178.21" y1="38.26" x2="181.52" y2="42.82" />
        <line class="cls-8" x1="184.16" y1="38.26" x2="187.47" y2="42.82" />
        <line class="cls-8" x1="190.76" y1="38.26" x2="194.07" y2="42.82" />
        <line class="cls-8" x1="196.84" y1="38.26" x2="200.15" y2="42.82" />
        <line class="cls-8" x1="203.44" y1="38.26" x2="206.75" y2="42.82" />
        <line class="cls-8" x1="209.46" y1="38.26" x2="212.77" y2="42.82" />
        <line class="cls-8" x1="216.06" y1="38.26" x2="219.37" y2="42.82" />
    </svg>

    <svg viewBox="0 0 141.82 142.36" id="operator">
        <defs>
            <style>.cls-10,.cls-11{fill:none;stroke:#000;stroke-linejoin:round;stroke-width:12px;}.cls-11{stroke-linecap:round;}</style>
        </defs>
        <circle class="cls-10" cx="70.38" cy="35.62" r="29.62" />
        <path class="cls-11" d="M185.78,196.42H56.08v-22c8.06-6.65,28.41-21.57,57.73-23.69,37.86-2.73,64.71,17.75,72,23.69v20.6" transform="translate(-50.08 -60.06)" />
    </svg>

    <svg viewBox="0 0 141.82 142.36" id="operator_locked">
        <defs>
            <style>.cls-12,.cls-13{fill:none;stroke-width:12px;}.cls-12,.cls-13,.cls-14,.cls-15,.cls-16,.cls-17{stroke:#000;}.cls-12,.cls-13,.cls-16{stroke-linejoin:round;}.cls-13,.cls-16{stroke-linecap:round;}.cls-14,.cls-16,.cls-17{fill:#fff;}.cls-14,.cls-15,.cls-17{stroke-miterlimit:10;}.cls-14{stroke-width:3px;}.cls-16{stroke-width:6px;}.cls-17{stroke-width:7px;}</style>
        </defs>
        <circle class="cls-12" cx="70.38" cy="35.62" r="29.62" />
        <path class="cls-13" d="M185.78,196.42H56.08v-22c8.06-6.65,28.41-21.57,57.73-23.69,37.86-2.73,64.71,17.75,72,23.69v20.6" transform="translate(-50.08 -60.06)" />
        <path class="cls-14" d="M143.61,197.29l-.63-.65a10.63,10.63,0,0,1-3-7.36V171.79a10.59,10.59,0,0,1,2.68-7.06l.87-1h0a10.64,10.64,0,0,1,7.93-3.56h27.75a10.61,10.61,0,0,1,6.66,2.35l.53.42a10.64,10.64,0,0,1,4,8.27v18.49a10.62,10.62,0,0,1-3.15,7.55l-.21.21a10.63,10.63,0,0,1-7.48,3.07h-28.3A10.61,10.61,0,0,1,143.61,197.29Z" transform="translate(-50.08 -60.06)" />
        <circle class="cls-15" cx="115.05" cy="117.66" r="5.53" />
        <line class="cls-16" x1="115.05" y1="117.66" x2="115.05" y2="127.59" />
        <path class="cls-17" d="M151.08,160c.13-11.47,3.15-21.15,13.79-21.15,10.89,0,14.39,9.44,14.25,21.15" transform="translate(-50.08 -60.06)" />
    </svg>

    <svg viewBox="0 0 151.4 206.68" id="program">
        <path d="M54.14,88.28H73.21V69h93.7V87.85h19.4V48.36a7.72,7.72,0,0,0-1.05-3.89l-2.32-4a15.46,15.46,0,0,0-6.6-6.11l-3.28-1.6a9.32,9.32,0,0,0-4.09-.94H70.67a4.59,4.59,0,0,0-1.75.35l-3.29,1.35a18.75,18.75,0,0,0-9,7.81L55.06,44a6.58,6.58,0,0,0-.92,3.36Z" transform="translate(-44.74 -31.85)" />
        <path d="M54.14,182.11H73.21v19.23h93.7V182.53h19.4V222a7.7,7.7,0,0,1-1.05,3.89l-2.32,4a15.46,15.46,0,0,1-6.6,6.11l-3.28,1.6a9.32,9.32,0,0,1-4.09.94H70.67a4.78,4.78,0,0,1-1.75-.34l-3.29-1.35a18.8,18.8,0,0,1-9-7.81l-1.54-2.6a6.63,6.63,0,0,1-.92-3.36Z" transform="translate(-44.74 -31.85)" />
        <g id="Layer_6" data-name="Layer 6">
            <polygon points="43.15 60.26 55.91 72.51 27.19 103.28 55.91 133.02 42.89 146.81 0 103.53 43.15 60.26" />
            <polygon points="108.25 60.26 95.49 72.51 124.21 103.28 95.49 133.02 108.51 146.81 151.4 103.53 108.25 60.26" />
        </g>
    </svg>

    <svg viewBox="0 0 181.98 208.68">
        <defs>
            <style>.cls-18{stroke:#231f20;}.cls-18,.cls-19,.cls-21{stroke-miterlimit:10;}.cls-19,.cls-21{fill:#fff;}.cls-19,.cls-20,.cls-21{stroke:#000;}.cls-19{stroke-width:3px;}.cls-20{fill:none;stroke-linecap:round;stroke-linejoin:round;stroke-width:6px;}.cls-21{stroke-width:7px;}</style>
        </defs>
        <g id="program_locked">
            <path class="cls-18" d="M54.14,88.28H73.21V69h93.7V87.85h19.4V48.36a7.72,7.72,0,0,0-1.05-3.89l-2.32-4a15.46,15.46,0,0,0-6.6-6.11l-3.28-1.6a9.32,9.32,0,0,0-4.09-.94H70.67a4.59,4.59,0,0,0-1.75.35l-3.29,1.35a18.75,18.75,0,0,0-9,7.81L55.06,44a6.58,6.58,0,0,0-.92,3.36Z" transform="translate(-44.04 -31.35)" />
            <path class="cls-18" d="M54.14,182.11H73.21v19.23h93.7V182.53h19.4V222a7.7,7.7,0,0,1-1.05,3.89l-2.32,4a15.46,15.46,0,0,1-6.6,6.11l-3.28,1.6a9.32,9.32,0,0,1-4.09.94H70.67a4.78,4.78,0,0,1-1.75-.34l-3.29-1.35a18.8,18.8,0,0,1-9-7.81l-1.54-2.6a6.63,6.63,0,0,1-.92-3.36Z" transform="translate(-44.04 -31.35)" />
            <g id="Layer_6" data-name="Layer 6">
                <polygon class="cls-18" points="43.85 60.76 56.62 73.01 27.9 103.78 56.62 133.52 43.6 147.31 0.7 104.03 43.85 60.76" />
                <polygon class="cls-18" points="108.96 60.76 96.19 73.01 124.92 103.78 96.19 133.52 109.22 147.31 152.11 104.03 108.96 60.76" />
            </g>
            <path class="cls-19" d="M136.74,232.41l-1.19-1.23a19.92,19.92,0,0,1-5.55-13.8V184.57a20,20,0,0,1,5-13.25l1.63-1.83h0a20,20,0,0,1,14.88-6.67h52.06a19.87,19.87,0,0,1,12.48,4.4l1,.79a19.93,19.93,0,0,1,7.44,15.52v34.68a19.9,19.9,0,0,1-5.91,14.15l-.41.41a19.91,19.91,0,0,1-14,5.76H151.1A19.9,19.9,0,0,1,136.74,232.41Z" transform="translate(-44.04 -31.35)" />
            <circle cx="133.06" cy="164.35" r="10.38" />
            <line class="cls-20" x1="133.06" y1="164.35" x2="133.06" y2="182.97" />
            <path class="cls-21" d="M150.76,162.41c.24-21.51,5.9-39.67,25.86-39.67,20.44,0,27,17.71,26.74,39.67" transform="translate(-44.04 -31.35)" />
        </g>
    </svg>

    <svg id="override" data-name="Layer 9" viewBox="0 0 142.67 123.55">
        <defs>
            <style>.cls-22,.cls-23{stroke:#000;stroke-miterlimit:10;}.cls-23{fill:#fff;}</style>
        </defs>
        <polygon class="cls-22" points="71.33 1 106.57 62.03 141.8 123.05 71.33 123.05 0.87 123.05 36.1 62.03 71.33 1" />
        <rect class="cls-23" x="63.64" y="51.77" width="13.45" height="25.93" />
        <rect class="cls-23" x="63.64" y="90.6" width="13.45" height="12.62" />
    </svg>

    <svg id="manual" data-name="Layer 9" viewBox="0 0 121.04 132.89">
        <defs>
            <style>.cls-24{stroke:#000;stroke-miterlimit:10;}</style>
        </defs>
        <path class="cls-24" d="M52.15,166.92l39.23,38.15a21.81,21.81,0,0,0,15.19,6.16h40.28a23.47,23.47,0,0,0,18.44-8.94h0a23.48,23.48,0,0,0,5.05-14.55V110.79a7,7,0,0,0-4.21-6.45h0a10.2,10.2,0,0,0-8.09,0l-.15.07a7,7,0,0,0-4.28,6.47v28.78h-5.34V92.26a7.22,7.22,0,0,0-4.59-6.73l-.71-.28a10.17,10.17,0,0,0-7.83.17h0A7.23,7.23,0,0,0,130.83,92v47.59h-5.34V87.2a7.67,7.67,0,0,0-3.93-6.69h0a9.28,9.28,0,0,0-9.17.08h0a7.27,7.27,0,0,0-3.63,6.3v52.73h-5.69V101.06a6.1,6.1,0,0,0-2.46-4.88h0a9.66,9.66,0,0,0-11.46,0h0a6.08,6.08,0,0,0-2.46,4.88v67.07L62.87,154.52A6.1,6.1,0,0,0,56,155l-2.48,2-1,.75A6.12,6.12,0,0,0,52.15,166.92Z" transform="translate(-49.81 -78.84)" />
    </svg>

    <svg id="maintenance" data-name="Layer 9" viewBox="0 0 113.36 121.59">
        <defs>
            <style>.cls-25{stroke:#000;stroke-miterlimit:10;}</style>
        </defs>
        <polygon class="cls-25" points="31.06 67.44 0.71 97.79 20.67 117.76 50.04 88.39 50.94 75.5 80.23 46.67 86 52.43 94.09 44.34 106.09 56.34 107.52 34.13 85.77 12.38 78.98 19.2 77.8 4.05 74.45 0.71 53.96 21.2 57.34 24.58 73.5 24.58 66.33 31.74 72.01 37.42 55.77 53.65 34.04 31.93 34.04 23.15 17.06 6.17 1.47 21.76 17.76 38.06 25.87 38.06 48.91 61.1 42.94 67.08 31.06 67.44" />
        <polygon class="cls-25" points="61.56 82.48 75.47 68.57 81.38 68.57 112.86 100.06 112.86 106.24 98.02 121.09 91.53 121.09 61.12 90.68 61.56 82.48" />
    </svg>

    <svg viewBox="0 0 169.15 86.55">
        <g id="ctrl_valve_open" data-name="Layer 10">
            <polygon points="12.77 0 0 12.26 28.72 43.02 0 72.77 13.02 86.55 55.91 43.28 12.77 0" />
            <polygon points="156.38 0 169.15 12.26 140.43 43.02 169.15 72.77 156.13 86.55 113.23 43.28 156.38 0" />
        </g>
    </svg>

    <svg viewBox="0 0 113.23 86.55">
        <g id="ctr_valve_close" data-name="Layer 10">
            <polygon points="12.77 0 0 12.26 28.72 43.02 0 72.77 13.02 86.55 55.91 43.28 12.77 0" />
            <polygon points="100.47 0 113.23 12.26 84.51 43.02 113.23 72.77 100.21 86.55 57.32 43.28 100.47 0" />
        </g>
    </svg>

</svg>